<svg xmlns="http://www.w3.org/2000/svg" xmlns:xlink="http://www.w3.org/1999/xlink" version="1.1" x="0px" y="0px" viewBox="0 0 100 100" enable-background="new 0 0 100 100" xml:space="preserve" style="max-width:100%" height="100%">
  <path fill="currentColor" d="M94.2,51.7H81.7v-3.9h14.3L94.2,51.7z M18.3,47.8H4.1l1.7,3.9h12.5V47.8z M88.8,60.9v-6.1h-2.7v-2.2h-3.2  
    v2.2h-2.7v6.1H52.8V20.1c0-3.1,2.5-5.7,5.7-5.7s5.7,2.5,5.7,5.7h5.8c0-6.2-5.1-11.3-11.3-11.3c-4.8,0-8.9,3-10.6,7.3  
    c-0.5,1.2-0.7,2.6-0.7,4v40.8H19.9v-6.1h-2.7v-2.2h-3.2v2.2h-2.7v6.1H2.5V67h95v-6.1H88.8z M69.9,21h-5.8l-0.9,5.8h7.5L69.9,21z  
    M2.5,91.2h95V69h-95V91.2z"/>
</svg>
