<svg xmlns="http://www.w3.org/2000/svg" xmlns:xlink="http://www.w3.org/1999/xlink" version="1.1" x="0px" y="0px" viewBox="0 0 52 52" style="enable-background:new 0 0 52 52;max-width:100%" xml:space="preserve" height="100%">
  <style type="text/css" style="" fill="currentColor">
    .st0{fill:none;}
  </style>
  <g style="" fill="currentColor">
    <path d="M34.1643257,46.8482819c-0.5245972-0.52948-0.869751-1.1851807-1.0264893-1.8950806   c2.2774658-0.4230957,4.2294312-2.0133057,5.038208-4.2055054c0.7781372-2.1091919,0.9168091-3.5540771,1.138916-9.4164448   c2.6106567-0.7880249,4.9921875-2.2679443,6.8464355-4.3369751c2.8818359-3.215332,4.2070313-7.3686523,3.7314453-11.6962891   C49.1389351,8.4410534,43.6174507,2.8912487,36.761982,2.1016979c-3.1074219-0.3569336-6.1845722,0.2329102-8.8964863,1.7070313   c-3.4394531,1.8706055-7.3154297,3.0751953-11.5224609,3.5805664L9.7171803,8.183363   c1.9552002,1.9089966,3.057373,5.3208618,3.3114014,8.7215576c0.2021484,2.7211914-0.1435547,5.2993164-0.9736328,7.2602539   c-0.3573608,0.8442993-0.8002319,1.5577393-1.3071899,2.1442871l12.2515259,0.6141357v7.0589619h2.7332153   c-0.0623779,1.2553101-0.1754761,2.2888794-0.3484497,3.1616211c-0.390625,1.9692383,0.1269531,3.9848633,1.4199219,5.5302734   c1.1002808,1.3151855,2.635437,2.1378784,4.3084717,2.3417358c0.1873169,1.2193604,0.7458496,2.3464355,1.6319599,3.2402954   c1.1142578,1.1240234,2.5996094,1.7431641,4.1826172,1.7431641H49.011982v-2H36.927021   C35.8811226,47.999649,34.9006538,47.5909576,34.1643257,46.8482819z M39.0959663,11.5474987l1.7890625,0.8945313   l-4.9970703,9.9941406l-1.7890625-0.8945313L39.0959663,11.5474987z M35.8879585,11.4425182l-4.9970722,9.9941406   l-1.7890625-0.8945313l4.9970722-9.9941406L35.8879585,11.4425182z M28.1028004,10.547987l1.7890625,0.8945313   l-4.9980469,9.9941406l-1.7890625-0.8945313L28.1028004,10.547987z M28.9963551,37.9806061v-2h1.9990234v-1.9990234h2.0000019   v1.9990234h1.9990234v2h-1.9990234v1.9985352h-2.0000019v-1.9985352H28.9963551z" style="" fill="currentColor"></path>
    <path d="M11.0340748,17.0543346c-0.3200073-4.2799683-2.1799927-8.6300049-5.1300044-8.4099731   c-2.5599978,0.1900024-4.2099609,4.0899658-3.8399661,9.0700073c0.3099976,4.1799927,2.0999758,8.4199829,4.9400024,8.4199829   c0.0599976,0,0.1300049-0.0100098,0.1900024-0.0100098C9.7541065,25.9343395,11.4040699,22.0343761,11.0340748,17.0543346z" style="" fill="currentColor"></path>
  </g>
</svg>
