<svg xmlns="http://www.w3.org/2000/svg" data-name="Layer 1" viewBox="0 0 64 64" x="0px" y="0px" style="max-width:100%" height="100%">
  <g style="" fill="currentColor">
    <path d="M11.02,4.38V14.76c0,1.18,.96,2.13,2.13,2.13H50.85c1.17,0,2.13-.95,2.13-2.13V4.38H11.02Z" style="" fill="currentColor"></path>
    <path d="M60,4.38h-3.52V14.76c0,3.11-2.53,5.63-5.63,5.63H13.15c-3.1,0-5.63-2.52-5.63-5.63V4.38h-3.52c-1.65,0-3,1.34-3,3V28.74c0,1.39,.96,2.56,2.24,2.9l2.63,4.84c.36,.66,1.05,1.07,1.8,1.07H56.34c.75,0,1.44-.41,1.8-1.07l2.63-4.84c1.28-.34,2.24-1.51,2.24-2.9V7.38c0-1.66-1.35-3-3-3ZM8.09,24.79c0-.39,.31-.7,.7-.7h4.56c.39,0,.7,.31,.7,.7v2.56c0,.39-.31,.7-.7,.7h-4.56c-.39,0-.7-.31-.7-.7v-2.56Zm46.72,9.25c-.09,.16-.26,.26-.44,.26H9.63c-.18,0-.35-.1-.44-.26l-1.25-2.3H56.05l-1.24,2.29Z" style="" fill="currentColor"></path>
  </g>
  <g style="" fill="currentColor">
    <path d="M32,40.86c-1.03,0-1.88,.84-1.88,1.88v4c0,1.03,.84,1.88,1.88,1.88s1.88-.84,1.88-1.88v-4c0-1.03-.84-1.88-1.88-1.88Z" style="" fill="currentColor"></path>
    <path d="M32,51.87c-1.03,0-1.88,.84-1.88,1.88v4c0,1.03,.84,1.88,1.88,1.88s1.88-.84,1.88-1.88v-4c0-1.03-.84-1.88-1.88-1.88Z" style="" fill="currentColor"></path>
    <path d="M45.14,46.34c-.09-.47-.14-.94-.14-1.42v-2.2c0-1.03-.84-1.88-1.88-1.88s-1.88,.84-1.88,1.88v2.2c0,.72,.07,1.44,.21,2.15,.17,.88,.95,1.51,1.84,1.51,.12,0,.24-.01,.36-.04,1.01-.2,1.68-1.19,1.48-2.2Z" style="" fill="currentColor"></path>
    <path d="M50.49,54.43l-2.83-2.83c-.71-.71-1.94-.71-2.65,0-.35,.35-.55,.82-.55,1.33s.2,.97,.55,1.33l2.83,2.83c.35,.35,.83,.55,1.33,.55s.97-.2,1.33-.55c.35-.35,.55-.82,.55-1.33s-.2-.97-.55-1.33Z" style="" fill="currentColor"></path>
    <path d="M20.87,40.84c-1.03,0-1.88,.84-1.88,1.88v2.2c0,.48-.05,.96-.14,1.42-.2,1.01,.46,2,1.48,2.2,.12,.02,.24,.04,.37,.04,.89,0,1.67-.64,1.84-1.51,.14-.71,.21-1.43,.21-2.15v-2.2c0-1.03-.84-1.88-1.88-1.88Z" style="" fill="currentColor"></path>
    <path d="M16.34,51.61l-2.83,2.83c-.35,.35-.55,.83-.55,1.33s.2,.97,.55,1.33c.35,.35,.83,.55,1.33,.55s.97-.2,1.33-.55l2.83-2.83c.35-.35,.55-.83,.55-1.33s-.2-.97-.55-1.33c-.71-.71-1.94-.71-2.65,0Z" style="" fill="currentColor"></path>
  </g>
</svg>
