<svg xmlns="http://www.w3.org/2000/svg" xmlns:xlink="http://www.w3.org/1999/xlink" version="1.1" x="0px" y="0px" viewBox="0 0 100 100" enable-background="new 0 0 100 100" xml:space="preserve" style="max-width:100%" height="100%">
  <path d="M24.928,70.151c-4.573-2.287-16.047-4.583-17.463-16.984h85.07c-1.021,4.168-6.402,15.474-15.627,18.013
    c-9.225,2.539-12.475,3.156-12.475,7.798c0,5.06,6.098,6.798,9.019,9.968c1.226,1.331,2.388,2.845,3.125,4.509
    c1.335,3.012,1.359,6.544,1.359,6.544H17.208c0,0,1.029-7.719,8.234-13.895C32.647,79.928,30.074,72.723,24.928,70.151z"
    fill="currentColor"/>
  <path d="M7.465,46.156c0,2.363,1.917,4.279,4.28,4.279h16.403c2.364,0,4.28-1.916,4.28-4.279V4.28c0-2.364-1.917-4.28-4.28-4.28
    H11.745c-2.364,0-4.28,1.916-4.28,4.28V46.156z" fill="currentColor"/>
  <path d="M33.589,50.435c0-2.984,2.419-5.404,5.404-5.404H87.13c2.984,0,5.405,2.42,5.405,5.404H33.589z" fill="currentColor"/>
</svg>
