<svg xmlns="http://www.w3.org/2000/svg" viewBox="0 0 68 50" x="0px" y="0px" style="max-width:100%" height="100%">
  <path fill="currentColor" fill-rule="evenodd" d="M681,475 C667.192881,475 656,463.807119 656,450 C656,436.192881 667.192881,425 681,425 C694.807119,425 706,436.192881 706,450 C706,463.807119 694.807119,475 681,475 Z
    M681,465 C689.284271,465 696,458.284271 696,450 C696,441.715729 689.284271,435 681,435 C672.715729,435 666,441.715729 666,450 C666,458.284271 672.715729,465 681,465 Z
    M699.142785,471.32769 L699.142785,471.32769 C702.951416,468.084655 705.880493,463.839482 707.522188,459 L723.969258,459 C723.453062,467.37073 716.500705,474 708,474 C704.781405,474 701.719398,473.042356 699.142785,471.32769 Z
    M708.929672,448 L722,448 C723.104569,448 724,448.895431 724,450 L724,456 L708.355641,456 C708.777648,454.067064 709,452.059499 709,450 C709,449.327533 708.976294,448.660603 708.929672,448 L708.929672,448 Z
    M681,461 C674.924868,461 670,456.075132 670,450 C670,443.924868 674.924868,439 681,439 C687.075132,439 692,443.924868 692,450 C692,456.075132 687.075132,461 681,461 Z"
    transform="translate(-656 -425)" style=""></path>
</svg>
