<svg xmlns="http://www.w3.org/2000/svg" xmlns:xlink="http://www.w3.org/1999/xlink" version="1.1" x="0px" y="0px" viewBox="0 0 100 100" enable-background="new 0 0 100 100" xml:space="preserve" style="max-width:100%" height="100%">
  <path d="M88.025,55.907c4.872-5.432,7.754-12.152,7.754-19.429c0-18.056-17.735-32.692-39.613-32.692
    c-21.878,0-39.613,14.637-39.613,32.692c0,6.819,2.531,13.149,6.858,18.389c-1.006,1.102-1.954,2.257-2.842,3.459l-7.92-7.92
    L0.369,62.685l12.639,12.639c-0.562,2.777-0.858,5.65-0.858,8.592v12.298h86.216V83.917C98.367,73.223,94.472,63.441,88.025,55.907z
     M32.634,18.787c6.224-5.137,14.582-7.966,23.532-7.966c8.951,0,17.308,2.829,23.532,7.966c5.833,4.814,9.045,11.096,9.045,17.69
    c0,5.206-2.01,10.214-5.723,14.463c-6.904-5.818-15.658-9.507-25.255-10.057c2.558-1.002,4.373-3.487,4.373-6.4
    c0-3.799-3.079-6.878-6.878-6.878c-3.799,0-6.878,3.079-6.878,6.878c0,2.914,1.814,5.398,4.373,6.4
    c-9.105,0.522-17.453,3.868-24.18,9.178c-3.241-4.053-4.985-8.732-4.985-13.583C23.589,29.884,26.801,23.601,32.634,18.787z"
    fill="currentColor"/>
</svg>
