<svg xmlns="http://www.w3.org/2000/svg" data-name="Layer 1" viewBox="0 0 100 100" x="0px" y="0px" style="max-width:100%" height="100%">
  <title style="" fill="currentColor">EXPORT - UP</title>
  <path d="M41.54572,16.40234h5.89074v4.631H42.92053V34.09863a54.96835,54.96835,0,0,1,14.15894-.00007V21.03338H52.56354v-4.631H58.458a.77432.77432,0,0,0,.77429-.7743V14.3294a32.09446,32.09446,0,0,0,10.41211-2.39856c4.19794-1.56207,6.05212-2.253,9.68475,1.154a.77987.77987,0,0,0,1.08692-.00683l2.52856-2.52857a.77555.77555,0,0,0-.011-1.10913C76.88507,3.76574,72.297,5.47283,67.85583,7.12572a27.63875,27.63875,0,0,1-8.62359,2.07581v-.437c0-5.01935-18.46088-5.01935-18.46088,0V15.628A.77433.77433,0,0,0,41.54572,16.40234Z" style="" fill="currentColor"></path>
  <path d="M50,37.74261c-21.32574,0-38.61365,12.8175-38.61365,28.62866,0,10.99341,8.36188,20.53418,20.62323,25.33105v1.47986A1.81778,1.81778,0,0,0,33.82733,95H66.17267a1.81778,1.81778,0,0,0,1.81775-1.81781V91.70232c12.26135-4.79687,20.62323-14.33764,20.62323-25.33105C88.61365,50.56011,71.32574,37.74261,50,37.74261Z" style="" fill="currentColor"></path>
</svg>
