<svg xmlns="http://www.w3.org/2000/svg" xmlns:xlink="http://www.w3.org/1999/xlink" version="1.1" x="0px" y="0px" viewBox="0 0 100 100" enable-background="new 0 0 100 100" xml:space="preserve" style="max-width:100%" height="100%">
    <g display="none" fill="currentColor">
        <path display="inline" d="M50.002,32.008c9.916,0,17.989,8.07,17.989,17.992c0,9.92-8.073,17.99-17.989,17.99   c-9.921,0-17.995-8.07-17.995-17.99C32.007,40.078,40.081,32.008,50.002,32.008 M50.002,14.018   C30.13,14.018,14.018,30.127,14.018,50S30.13,85.982,50.002,85.982c19.873,0,35.98-16.109,35.98-35.982   S69.875,14.018,50.002,14.018L50.002,14.018z" fill="currentColor"></path>
    </g>
    <g display="none" fill="currentColor">
        <path display="inline" d="M50.463,22.014c-19.869,0-35.984,11.045-35.984,24.674c0,6.475,3.667,12.341,9.612,16.748l-4.027,14.551   l20.54-7.582c3.132,0.615,6.438,0.968,9.859,0.968c19.873,0,35.98-11.05,35.98-24.684C86.443,33.059,70.336,22.014,50.463,22.014z" fill="currentColor"></path>
    </g>
    <g display="none" fill="currentColor">
        <rect x="15.209" y="32.137" transform="matrix(-0.7071 -0.7071 0.7071 -0.7071 47.1317 113.7827)" display="inline" width="63.844" height="29.986" fill="currentColor"></rect>
        <polygon display="inline" points="64.752,85.957 64.842,86.045 85.982,85.98 86.045,64.842 85.957,64.756" fill="currentColor"></polygon>
    </g>
    <g fill="currentColor">
        <path fill-rule="evenodd" clip-rule="evenodd" d="M6.427,45.399h6.603c0.332,0,0.604-0.27,0.636-0.598   c0.382-3.848,3.488-6.893,7.362-7.181c0.33-0.024,0.868-0.022,1.2-0.022h17.201c0.332,0,0.87-0.002,1.201,0.022   c3.874,0.288,6.98,3.333,7.363,7.181c0.032,0.328,0.304,0.598,0.635,0.598h2.804c0.332,0,0.604-0.27,0.637-0.598   c0.382-3.848,3.487-6.893,7.362-7.181c0.329-0.024,0.868-0.022,1.2-0.022h17.2c0.332,0,0.87-0.002,1.2,0.022   c3.875,0.288,6.979,3.333,7.363,7.181c0.032,0.328,0.304,0.598,0.636,0.598h6.602c0.332,0,0.601-0.268,0.601-0.6V27.118   c0-0.333-0.239-0.72-0.537-0.864c-13.017-6.361-27.624-9.965-43.065-10.055c-0.332-0.002-0.868-0.002-1.2,0   c-15.441,0.09-30.048,3.696-43.064,10.055c-0.298,0.144-0.538,0.531-0.538,0.864v17.681C5.827,45.131,6.094,45.399,6.427,45.399z" fill="currentColor"></path>
        <path fill-rule="evenodd" clip-rule="evenodd" d="M99.989,52.602c-0.261-1.73-1.628-3.098-3.358-3.358   c-0.328-0.048-0.866-0.044-1.199-0.044H4.626c-0.332,0-0.87-0.004-1.198,0.044c-1.73,0.26-3.098,1.627-3.358,3.358   c-0.048,0.328-0.044,0.866-0.044,1.199v14c0,0.332,0.268,0.602,0.6,0.602h98.806c0.333,0,0.6-0.27,0.6-0.602v-14   C100.032,53.468,100.037,52.93,99.989,52.602z" fill="currentColor"></path>
        <path fill-rule="evenodd" clip-rule="evenodd" d="M99.433,72.201H0.626c-0.332,0-0.6,0.268-0.6,0.6v2.801   c0,0.332,0.268,0.6,0.6,0.6h6.601c0.332,0,0.6,0.268,0.6,0.6v6.4c0,0.332,0.268,0.602,0.6,0.602h6.401c0.332,0,0.6-0.27,0.6-0.602   v-6.4c0-0.332,0.268-0.6,0.6-0.6h68.005c0.332,0,0.6,0.268,0.6,0.6v6.4c0,0.332,0.269,0.602,0.6,0.602h6.4   c0.333,0,0.601-0.27,0.601-0.602v-6.4c0-0.332,0.269-0.6,0.6-0.6h6.601c0.333,0,0.6-0.268,0.6-0.6v-2.801   C100.032,72.469,99.766,72.201,99.433,72.201z" fill="currentColor"></path>
    </g>
</svg>

