<svg width="512" height="512" viewBox="0 0 512 512" fill="none" xmlns="http://www.w3.org/2000/svg">
<g clip-path="url(#clip0_10_53)">
<path d="M510.452 428.276L453.912 358V258.8H505C506.279 258.8 507.534 258.449 508.628 257.787C509.721 257.124 510.613 256.174 511.205 255.04C511.797 253.906 512.067 252.632 511.986 251.356C511.904 250.079 511.475 248.85 510.744 247.8L472.208 192.444H505.008C506.298 192.444 507.563 192.088 508.663 191.415C509.764 190.741 510.657 189.777 511.243 188.628C511.83 187.48 512.088 186.191 511.989 184.905C511.889 183.619 511.437 182.385 510.68 181.34L472.516 128.592H505.008C506.287 128.592 507.542 128.241 508.636 127.579C509.729 126.916 510.621 125.966 511.213 124.832C511.805 123.698 512.075 122.424 511.994 121.148C511.912 119.871 511.483 118.642 510.752 117.592L430.952 3.00003C430.273 2.12311 429.403 1.41326 428.407 0.924895C427.412 0.436531 426.317 0.182617 425.208 0.182617C424.099 0.182617 423.005 0.436531 422.009 0.924895C421.014 1.41326 420.143 2.12311 419.464 3.00003L339.672 117.6C338.941 118.65 338.512 119.879 338.431 121.156C338.35 122.432 338.62 123.706 339.212 124.84C339.804 125.974 340.695 126.924 341.789 127.587C342.883 128.249 344.137 128.6 345.416 128.6H377.908L339.748 181.348C338.992 182.393 338.539 183.626 338.44 184.912C338.34 186.198 338.598 187.486 339.184 188.635C339.771 189.783 340.663 190.748 341.763 191.421C342.862 192.095 344.127 192.452 345.416 192.452H378.216L351.532 230.8L261.452 118.844C260.772 118.067 259.934 117.444 258.994 117.017C258.054 116.591 257.033 116.37 256 116.37C254.968 116.37 253.947 116.591 253.007 117.017C252.066 117.444 251.228 118.067 250.548 118.844L160.468 230.8L133.788 192.476H166.588C167.878 192.476 169.142 192.119 170.242 191.445C171.342 190.771 172.234 189.807 172.82 188.659C173.407 187.51 173.664 186.222 173.565 184.936C173.465 183.65 173.012 182.417 172.256 181.372L134.096 128.624H166.584C167.863 128.624 169.118 128.273 170.212 127.611C171.305 126.948 172.197 125.998 172.789 124.864C173.381 123.73 173.651 122.456 173.57 121.18C173.488 119.903 173.059 118.674 172.328 117.624L92.5363 3.00003C91.8575 2.12311 90.9868 1.41326 89.9912 0.924895C88.9955 0.436531 87.9013 0.182617 86.7923 0.182617C85.6833 0.182617 84.5891 0.436531 83.5934 0.924895C82.5978 1.41326 81.7271 2.12311 81.0483 3.00003L1.2563 117.6C0.525452 118.65 0.0961361 119.879 0.0149689 121.156C-0.0661982 122.432 0.203885 123.706 0.795891 124.84C1.3879 125.974 2.2792 126.924 3.373 127.587C4.46681 128.249 5.72132 128.6 7.0003 128.6H39.4923L1.3283 181.356C0.572009 182.401 0.119189 183.635 0.0198242 184.921C-0.0795402 186.207 0.178416 187.496 0.765215 188.644C1.35201 189.793 2.24483 190.757 3.34511 191.431C4.44539 192.104 5.71033 192.46 7.0003 192.46H39.8003L1.2563 247.816C0.52985 248.866 0.10418 250.094 0.0253298 251.368C-0.0535209 252.642 0.217449 253.913 0.80893 255.044C1.40041 256.175 2.28989 257.123 3.38115 257.785C4.47241 258.447 5.72391 258.798 7.0003 258.8H58.0883V358L1.5483 428.276C0.543879 429.522 -0.00254239 431.075 0.000295875 432.676V505C0.00135565 506.856 0.739194 508.636 2.05172 509.949C3.36424 511.261 5.14411 511.999 7.0003 512H505C506.856 511.999 508.636 511.261 509.949 509.949C511.261 508.636 511.999 506.856 512 505V432.668C512.001 431.07 511.455 429.52 510.452 428.276ZM430.348 351.076H312L303.04 336.968L292.94 321.064H406.208L430.348 351.076ZM200 351.064H81.6523L105.792 321.064H219.06L208.96 336.968L200 351.064ZM137.912 258.8L115.512 286.66V258.8H137.912ZM249 300V368C248.961 401.712 235.844 434.095 212.408 458.329C188.973 482.563 157.048 496.759 123.356 497.928L249 300ZM263 300L388.644 497.904C354.956 496.736 323.036 482.543 299.601 458.314C276.166 434.084 263.045 401.708 263 368V300ZM374.088 258.8H396.488V286.66L374.088 258.8ZM439.912 340.6L410.504 304.056V258.8H439.912V340.6ZM397.356 189.46C398.089 188.411 398.519 187.181 398.601 185.904C398.683 184.627 398.413 183.352 397.821 182.218C397.229 181.084 396.337 180.133 395.242 179.471C394.147 178.808 392.892 178.459 391.612 178.46H359.124L397.284 125.712C398.041 124.666 398.494 123.431 398.593 122.144C398.692 120.857 398.433 119.568 397.845 118.418C397.256 117.269 396.362 116.305 395.26 115.633C394.158 114.96 392.891 114.606 391.6 114.608H358.8L425.2 19.252L491.6 114.608H458.8C457.511 114.609 456.247 114.966 455.148 115.64C454.048 116.314 453.156 117.278 452.569 118.426C451.983 119.574 451.725 120.862 451.823 122.148C451.922 123.433 452.374 124.667 453.128 125.712L491.292 178.46H458.8C457.521 178.46 456.267 178.811 455.173 179.473C454.079 180.136 453.188 181.086 452.596 182.22C452.004 183.354 451.734 184.628 451.815 185.904C451.896 187.181 452.325 188.41 453.056 189.46L491.6 244.8H362.82L360.676 242.132L397.356 189.46ZM256 134.4L394.944 307.064H284.052L261.912 272.188C261.266 271.212 260.387 270.411 259.356 269.857C258.324 269.303 257.171 269.013 256 269.013C254.829 269.013 253.677 269.303 252.645 269.857C251.613 270.411 250.735 271.212 250.088 272.188L227.948 307.064H117.056L256 134.4ZM58.9403 189.46C59.6711 188.41 60.1005 187.181 60.1816 185.904C60.2628 184.628 59.9927 183.354 59.4007 182.22C58.8087 181.086 57.9174 180.136 56.8236 179.473C55.7298 178.811 54.4753 178.46 53.1963 178.46H20.7043L58.8683 125.712C59.6229 124.667 60.0744 123.434 60.1732 122.149C60.2719 120.863 60.0141 119.576 59.428 118.428C58.842 117.28 57.9505 116.315 56.8516 115.642C55.7528 114.968 54.4893 114.61 53.2003 114.608H20.4003L86.8003 19.252L153.2 114.608H120.4C119.11 114.608 117.845 114.964 116.745 115.637C115.645 116.311 114.752 117.275 114.165 118.424C113.578 119.573 113.32 120.861 113.42 122.147C113.519 123.433 113.972 124.667 114.728 125.712L152.888 178.46H120.4C119.121 178.459 117.865 178.808 116.771 179.471C115.676 180.133 114.784 181.084 114.192 182.218C113.6 183.352 113.33 184.627 113.412 185.904C113.493 187.181 113.924 188.411 114.656 189.46L151.336 242.148L149.2 244.8H20.4003L58.9403 189.46ZM101.496 258.8V304.072L72.0883 340.616V258.8H101.496ZM14.0003 435.132L70.4003 365.064H191.124L106.724 498H14.0003V435.132ZM180.884 498C198.554 489.542 214.323 477.584 227.234 462.852C240.146 448.119 249.933 430.918 256 412.292C262.068 430.918 271.854 448.119 284.766 462.852C297.678 477.584 313.447 489.542 331.116 498H180.884ZM498 498H405.276L320.876 365.064H441.6L498 435.132V498Z" fill="#7C782F"/>
</g>
<defs>
<clipPath id="clip0_10_53">
<rect width="512" height="512" fill="white"/>
</clipPath>
</defs>
</svg>
