<svg width="512" height="512" viewBox="0 0 512 512" fill="none" xmlns="http://www.w3.org/2000/svg">
<path d="M400.108 132.252C401.024 132.251 401.93 132.07 402.776 131.72L429.388 120.74C430.238 120.389 431.01 119.874 431.661 119.225C432.312 118.575 432.829 117.804 433.182 116.955C433.535 116.106 433.717 115.196 433.718 114.276C433.719 113.357 433.539 112.446 433.188 111.596C432.837 110.746 432.322 109.974 431.673 109.323C431.023 108.672 430.252 108.155 429.403 107.802C428.554 107.449 427.644 107.267 426.724 107.266C425.805 107.265 424.894 107.445 424.044 107.796L397.432 118.776C395.934 119.396 394.698 120.515 393.934 121.944C393.169 123.373 392.924 125.023 393.24 126.612C393.555 128.202 394.412 129.633 395.665 130.661C396.917 131.689 398.487 132.252 400.108 132.252Z" fill="#7C782F"/>
<path d="M393.272 167.112C394.187 167.111 395.094 166.93 395.94 166.58L422.552 155.6C424.268 154.891 425.632 153.53 426.344 151.816C427.056 150.101 427.058 148.174 426.35 146.458C425.641 144.742 424.28 143.378 422.565 142.666C420.851 141.953 418.924 141.951 417.208 142.66L390.596 153.64C389.097 154.258 387.858 155.377 387.093 156.806C386.327 158.235 386.081 159.885 386.397 161.476C386.713 163.066 387.571 164.497 388.825 165.525C390.079 166.553 391.65 167.114 393.272 167.112Z" fill="#7C782F"/>
<path d="M114.568 152.696L87.9561 141.716C86.2396 141.007 84.3119 141.009 82.5971 141.722C80.8823 142.435 79.5208 143.799 78.8121 145.516C78.1035 147.232 78.1057 149.16 78.8183 150.875C79.531 152.59 80.8956 153.951 82.6121 154.66L109.224 165.64C110.074 165.991 110.985 166.171 111.904 166.17C112.824 166.169 113.734 165.987 114.583 165.634C115.432 165.281 116.204 164.764 116.853 164.113C117.502 163.462 118.017 162.69 118.368 161.84C118.719 160.99 118.899 160.079 118.898 159.16C118.897 158.24 118.715 157.33 118.362 156.481C118.009 155.632 117.492 154.861 116.841 154.211C116.191 153.562 115.418 153.047 114.568 152.696Z" fill="#7C782F"/>
<path d="M432.272 264.708C432.456 264.708 432.64 264.732 432.82 264.732C434.582 264.729 436.279 264.062 437.571 262.864C438.863 261.666 439.656 260.025 439.792 258.268L441.448 236.856C441.591 235.005 440.992 233.173 439.784 231.763C438.576 230.353 436.857 229.481 435.006 229.338C433.155 229.195 431.323 229.794 429.913 231.002C428.503 232.21 427.631 233.929 427.488 235.78L425.832 257.192C425.69 259.043 426.288 260.874 427.496 262.284C428.704 263.693 430.422 264.565 432.272 264.708Z" fill="#7C782F"/>
<path d="M468 172.52H452.268C452.94 169.707 453.567 166.849 454.148 163.948C459.023 141.404 459.159 118.092 454.548 95.492C449.492 74.292 439.148 61.136 425.42 58.452C399.944 53.448 372.22 88 360.54 138.052C356.269 132.135 350.862 127.127 344.635 123.321C338.408 119.515 331.486 116.987 324.272 115.884C325.53 112.028 327.014 108.25 328.716 104.568C329.102 103.733 329.32 102.83 329.357 101.911C329.394 100.992 329.25 100.075 328.933 99.2111C328.615 98.3477 328.131 97.5553 327.507 96.8791C326.884 96.2028 326.133 95.6561 325.298 95.27C324.463 94.8839 323.56 94.6661 322.641 94.6289C321.722 94.5917 320.805 94.7359 319.941 95.0533C319.078 95.3707 318.285 95.8551 317.609 96.4787C316.933 97.1023 316.386 97.8531 316 98.688C313.465 104.152 311.362 109.807 309.712 115.6C296.312 117.153 283.954 123.59 275 133.68V38C275 32.9609 272.998 28.1282 269.435 24.565C265.872 21.0018 261.039 19 256 19C250.961 19 246.128 21.0018 242.565 24.565C239.002 28.1282 237 32.9609 237 38V144.872C235.94 143.724 234.848 142.604 233.68 141.552C229.699 137.955 226.51 133.569 224.316 128.672C222.123 123.764 220.993 118.448 221 113.072V47.24C221 45.3835 220.263 43.603 218.95 42.2903C217.637 40.9775 215.857 40.24 214 40.24H178C176.143 40.24 174.363 40.9775 173.05 42.2903C171.737 43.603 171 45.3835 171 47.24V113.08C170.998 118.449 169.868 123.758 167.683 128.662C165.499 133.567 162.309 137.958 158.32 141.552C153.757 145.704 149.958 150.624 147.096 156.088C133.808 114.332 109.624 87.864 86.58 92.372C64.332 96.72 51.6 129.2 54.536 172.52H44C37.3719 172.527 31.0173 175.164 26.3305 179.851C21.6437 184.537 19.0074 190.892 19 197.52C19.0074 204.148 21.6437 210.503 26.3305 215.189C31.0173 219.876 37.3719 222.513 44 222.52H45.36L63.508 457.004C59.6436 458.876 56.5297 462.006 54.6767 465.879C52.8236 469.753 52.3412 474.141 53.3086 478.325C54.2759 482.508 56.6357 486.239 60.0011 488.906C63.3665 491.573 67.538 493.018 71.832 493.004H440.168C444.462 493.018 448.634 491.573 451.999 488.906C455.364 486.239 457.724 482.508 458.691 478.325C459.659 474.141 459.176 469.753 457.323 465.879C455.47 462.006 452.356 458.876 448.492 457.004L466.64 222.52H468C474.628 222.512 480.982 219.875 485.668 215.188C490.355 210.502 492.992 204.148 493 197.52C492.993 190.892 490.356 184.537 485.669 179.851C480.983 175.164 474.628 172.527 468 172.52ZM372.708 148C382.248 99.424 406.708 69.048 422.736 72.2C430.64 73.752 437.272 83.428 440.928 98.752C445.079 119.395 444.905 140.675 440.416 161.248C439.648 165.104 438.756 168.848 437.808 172.532H370.892C370.924 171.76 371 170.984 371 170.212C370.981 167.717 370.792 165.226 370.436 162.756C370.948 158.136 371.684 153.304 372.708 148ZM306.708 130.316C306.249 133.926 306.013 137.561 306 141.2C306 143.057 306.738 144.837 308.05 146.15C309.363 147.463 311.143 148.2 313 148.2C314.857 148.2 316.637 147.463 317.95 146.15C319.262 144.837 320 143.057 320 141.2C320.017 137.292 320.338 133.391 320.96 129.532C330.893 130.751 340.038 135.558 346.675 143.047C353.312 150.536 356.984 160.193 357 170.2C357 170.968 356.932 171.744 356.888 172.52H275.112C275.068 171.744 275 170.968 275 170.2C275.015 160.952 278.154 151.98 283.906 144.739C289.658 137.498 297.687 132.411 306.692 130.304L306.708 130.316ZM256 242C258.176 242 260.302 242.645 262.111 243.854C263.92 245.063 265.33 246.78 266.163 248.79C266.995 250.8 267.213 253.012 266.789 255.146C266.364 257.28 265.317 259.24 263.778 260.778C262.24 262.317 260.28 263.364 258.146 263.789C256.012 264.213 253.8 263.995 251.79 263.163C249.78 262.33 248.063 260.92 246.854 259.111C245.645 257.302 245 255.176 245 253C245.002 250.083 246.162 247.287 248.224 245.224C250.287 243.162 253.083 242.002 256 242ZM251 38C251 36.6739 251.527 35.4021 252.464 34.4645C253.402 33.5268 254.674 33 256 33C257.326 33 258.598 33.5268 259.536 34.4645C260.473 35.4021 261 36.6739 261 38V228.504C257.701 227.832 254.299 227.832 251 228.504V38ZM185 54.256H207V64.256H185V54.256ZM167.684 151.964C173.13 147.055 177.485 141.057 180.468 134.359C183.451 127.661 184.995 120.412 185 113.08V78.256H207V113.08C206.993 120.419 208.537 127.676 211.532 134.376C214.53 141.068 218.889 147.062 224.332 151.976C230.335 157.414 234.466 164.61 236.136 172.536H155.844C156.394 169.901 157.221 167.332 158.312 164.872C160.504 159.964 163.696 155.568 167.684 151.964ZM89.284 106.112C104.14 103.16 126.572 129.524 137.196 172.512H68.58C65.748 133.912 76.48 108.608 89.264 106.112H89.284ZM33 197.52C32.9993 196.069 33.2871 194.632 33.8468 193.293C34.4064 191.954 35.2267 190.739 36.26 189.72C37.2721 188.698 38.478 187.889 39.8072 187.339C41.1363 186.79 42.5618 186.511 44 186.52H237V208.52H44C41.0836 208.517 38.2875 207.357 36.2253 205.295C34.1631 203.232 33.0032 200.436 33 197.52ZM440.168 479H71.832C70.5059 479 69.2341 478.473 68.2965 477.536C67.3588 476.598 66.832 475.326 66.832 474C66.832 472.674 67.3588 471.402 68.2965 470.464C69.2341 469.527 70.5059 469 71.832 469H440.168C441.494 469 442.766 469.527 443.704 470.464C444.641 471.402 445.168 472.674 445.168 474C445.168 475.326 444.641 476.598 443.704 477.536C442.766 478.473 441.494 479 440.168 479ZM434.6 455H77.4L59.4 222.52H237V236.8C233.894 240.432 231.894 244.878 231.237 249.611C230.58 254.345 231.294 259.167 233.293 263.507C235.292 267.848 238.494 271.524 242.518 274.101C246.543 276.678 251.221 278.048 256 278.048C260.779 278.048 265.457 276.678 269.482 274.101C273.506 271.524 276.708 267.848 278.707 263.507C280.706 259.167 281.42 254.345 280.763 249.611C280.106 244.878 278.106 240.432 275 236.8V222.52H452.6L434.6 455ZM475.74 205.324C474.728 206.346 473.522 207.155 472.193 207.705C470.864 208.254 469.438 208.533 468 208.524H275V186.524H468C470.916 186.527 473.712 187.687 475.775 189.749C477.837 191.812 478.997 194.608 479 197.524C479.006 198.976 478.721 200.415 478.161 201.755C477.601 203.094 476.778 204.308 475.74 205.324Z" fill="#7C782F"/>
<path d="M182 364.936C182 363.08 181.263 361.299 179.95 359.986C178.637 358.674 176.857 357.936 175 357.936H127C125.143 357.936 123.363 358.674 122.05 359.986C120.738 361.299 120 363.08 120 364.936C120 366.793 120.738 368.573 122.05 369.886C123.363 371.199 125.143 371.936 127 371.936H175C175.919 371.937 176.83 371.756 177.679 371.404C178.529 371.053 179.301 370.537 179.951 369.887C180.601 369.237 181.117 368.465 181.468 367.615C181.82 366.766 182.001 365.855 182 364.936Z" fill="#7C782F"/>
<path d="M276 385.008H236C234.143 385.008 232.363 385.746 231.05 387.058C229.737 388.371 229 390.152 229 392.008C229 393.865 229.737 395.645 231.05 396.958C232.363 398.271 234.143 399.008 236 399.008H276C277.857 399.008 279.637 398.271 280.95 396.958C282.262 395.645 283 393.865 283 392.008C283 390.152 282.262 388.371 280.95 387.058C279.637 385.746 277.857 385.008 276 385.008Z" fill="#7C782F"/>
<path d="M199.2 412.996H143.2C141.344 412.996 139.563 413.734 138.25 415.046C136.938 416.359 136.2 418.14 136.2 419.996C136.2 421.853 136.938 423.633 138.25 424.946C139.563 426.259 141.344 426.996 143.2 426.996H199.2C201.057 426.996 202.837 426.259 204.15 424.946C205.463 423.633 206.2 421.853 206.2 419.996C206.2 418.14 205.463 416.359 204.15 415.046C202.837 413.734 201.057 412.996 199.2 412.996Z" fill="#7C782F"/>
<path d="M385 357.936H337C335.143 357.936 333.363 358.674 332.05 359.986C330.738 361.299 330 363.08 330 364.936C330 366.793 330.738 368.573 332.05 369.886C333.363 371.199 335.143 371.936 337 371.936H385C386.857 371.936 388.637 371.199 389.95 369.886C391.262 368.573 392 366.793 392 364.936C392 363.08 391.262 361.299 389.95 359.986C388.637 358.674 386.857 357.936 385 357.936Z" fill="#7C782F"/>
<path d="M368.8 412.996H312.8C310.943 412.996 309.163 413.734 307.85 415.046C306.537 416.359 305.8 418.14 305.8 419.996C305.8 421.853 306.537 423.633 307.85 424.946C309.163 426.259 310.943 426.996 312.8 426.996H368.8C370.656 426.996 372.437 426.259 373.75 424.946C375.062 423.633 375.8 421.853 375.8 419.996C375.8 418.14 375.062 416.359 373.75 415.046C372.437 413.734 370.656 412.996 368.8 412.996Z" fill="#7C782F"/>
<path d="M353.296 294.548C353.295 295.467 353.476 296.378 353.828 297.228C354.179 298.077 354.695 298.849 355.345 299.499C355.995 300.149 356.767 300.665 357.617 301.016C358.466 301.368 359.376 301.549 360.296 301.548H409.704C411.56 301.548 413.341 300.811 414.654 299.498C415.966 298.185 416.704 296.405 416.704 294.548C416.704 292.692 415.966 290.911 414.654 289.598C413.341 288.286 411.56 287.548 409.704 287.548H360.296C358.439 287.548 356.659 288.286 355.346 289.598C354.033 290.911 353.296 292.692 353.296 294.548Z" fill="#7C782F"/>
<path d="M288 323.108H313C314.857 323.108 316.637 322.37 317.95 321.058C319.262 319.745 320 317.964 320 316.108C320 314.251 319.262 312.471 317.95 311.158C316.637 309.845 314.857 309.108 313 309.108H288C286.143 309.108 284.363 309.845 283.05 311.158C281.738 312.471 281 314.251 281 316.108C281 317.964 281.738 319.745 283.05 321.058C284.363 322.37 286.143 323.108 288 323.108Z" fill="#7C782F"/>
<path d="M322.364 263H351.164C353.021 263 354.801 262.262 356.114 260.95C357.427 259.637 358.164 257.857 358.164 256C358.164 254.143 357.427 252.363 356.114 251.05C354.801 249.737 353.021 249 351.164 249H322.364C320.508 249 318.727 249.737 317.414 251.05C316.102 252.363 315.364 254.143 315.364 256C315.364 257.857 316.102 259.637 317.414 260.95C318.727 262.262 320.508 263 322.364 263Z" fill="#7C782F"/>
<path d="M158.704 294.548C158.704 292.692 157.966 290.911 156.654 289.598C155.341 288.286 153.56 287.548 151.704 287.548H102.296C100.439 287.548 98.6589 288.286 97.3462 289.598C96.0334 290.911 95.2959 292.692 95.2959 294.548C95.2959 296.405 96.0334 298.185 97.3462 299.498C98.6589 300.811 100.439 301.548 102.296 301.548H151.704C152.623 301.549 153.534 301.368 154.383 301.016C155.233 300.665 156.005 300.149 156.655 299.499C157.305 298.849 157.821 298.077 158.172 297.228C158.524 296.378 158.704 295.467 158.704 294.548Z" fill="#7C782F"/>
<path d="M224 309.108H199C197.143 309.108 195.363 309.845 194.05 311.158C192.737 312.471 192 314.251 192 316.108C192 317.964 192.737 319.745 194.05 321.058C195.363 322.37 197.143 323.108 199 323.108H224C225.857 323.108 227.637 322.37 228.95 321.058C230.263 319.745 231 317.964 231 316.108C231 314.251 230.263 312.471 228.95 311.158C227.637 309.845 225.857 309.108 224 309.108Z" fill="#7C782F"/>
<path d="M160.82 263H189.62C191.477 263 193.257 262.262 194.57 260.95C195.883 259.637 196.62 257.857 196.62 256C196.62 254.143 195.883 252.363 194.57 251.05C193.257 249.737 191.477 249 189.62 249H160.82C158.964 249 157.183 249.737 155.871 251.05C154.558 252.363 153.82 254.143 153.82 256C153.82 257.857 154.558 259.637 155.871 260.95C157.183 262.262 158.964 263 160.82 263Z" fill="#7C782F"/>
</svg>
