<svg width="512" height="512" viewBox="0 0 512 512" fill="none" xmlns="http://www.w3.org/2000/svg">
<g clip-path="url(#clip0_10_41)">
<path d="M176.032 298.968H88.7002C86.8437 298.968 85.0632 299.705 83.7505 301.018C82.4377 302.331 81.7002 304.111 81.7002 305.968V348.468C81.7002 350.324 82.4377 352.105 83.7505 353.418C85.0632 354.73 86.8437 355.468 88.7002 355.468H176.032C177.889 355.468 179.669 354.73 180.982 353.418C182.295 352.105 183.032 350.324 183.032 348.468V305.968C183.032 304.111 182.295 302.331 180.982 301.018C179.669 299.705 177.889 298.968 176.032 298.968ZM169.032 341.468H95.7002V312.968H169.032V341.468Z" fill="#7C782F"/>
<path d="M423.3 298.968H335.968C334.111 298.968 332.331 299.705 331.018 301.018C329.705 302.331 328.968 304.111 328.968 305.968V348.468C328.968 350.324 329.705 352.105 331.018 353.418C332.331 354.73 334.111 355.468 335.968 355.468H423.3C425.156 355.468 426.937 354.73 428.25 353.418C429.562 352.105 430.3 350.324 430.3 348.468V305.968C430.3 304.111 429.562 302.331 428.25 301.018C426.937 299.705 425.156 298.968 423.3 298.968ZM416.3 341.468H342.968V312.968H416.3V341.468Z" fill="#7C782F"/>
<path d="M306.528 268.34L277.832 252.648L262.14 223.956C261.537 222.854 260.649 221.935 259.569 221.295C258.489 220.655 257.256 220.317 256 220.317C254.745 220.317 253.512 220.655 252.432 221.295C251.352 221.935 250.463 222.854 249.86 223.956L234.168 252.648L205.472 268.34C204.371 268.943 203.452 269.831 202.812 270.911C202.172 271.992 201.834 273.224 201.834 274.48C201.834 275.735 202.172 276.968 202.812 278.048C203.452 279.129 204.371 280.017 205.472 280.62L234.168 296.316L249.86 325.004C250.462 326.106 251.35 327.026 252.431 327.667C253.511 328.308 254.744 328.646 256 328.646C257.257 328.646 258.49 328.308 259.57 327.667C260.65 327.026 261.538 326.106 262.14 325.004L277.832 296.316L306.528 280.62C307.63 280.017 308.549 279.129 309.189 278.048C309.829 276.968 310.167 275.735 310.167 274.48C310.167 273.224 309.829 271.992 309.189 270.911C308.549 269.831 307.63 268.943 306.528 268.34ZM269.328 285.016C268.154 285.656 267.189 286.621 266.548 287.796L256 307.06L245.464 287.796C244.819 286.619 243.846 285.653 242.664 285.016L223.42 274.48L242.684 263.944C243.869 263.301 244.842 262.328 245.484 261.144L256 241.904L266.536 261.164C267.174 262.346 268.139 263.318 269.316 263.964L288.58 274.5L269.328 285.016Z" fill="#7C782F"/>
<path d="M470.332 227.316V210H489C495.098 209.993 500.944 207.567 505.255 203.255C509.567 198.944 511.993 193.098 512 187V114.488C511.993 108.39 509.567 102.544 505.255 98.2327C500.944 93.921 495.098 91.4954 489 91.488H470.332V67C470.312 49.2367 463.247 32.2066 450.686 19.6461C438.125 7.08548 421.095 0.0201152 403.332 0L108.668 0C90.9047 0.0201152 73.8746 7.08548 61.3141 19.6461C48.7535 32.2066 41.6881 49.2367 41.668 67V91.492H23C16.902 91.4983 11.0555 93.9236 6.74356 98.2356C2.4316 102.548 0.00635322 108.394 0 114.492L0 187C0.00740977 193.098 2.433 198.944 6.74473 203.255C11.0565 207.567 16.9023 209.993 23 210H41.668V381.5H23C16.9023 381.507 11.0565 383.933 6.74473 388.245C2.433 392.556 0.00740977 398.402 0 404.5L0 422.668C0.00740977 428.766 2.433 434.612 6.74473 438.923C11.0565 443.235 16.9023 445.661 23 445.668H41.668V481C41.6775 489.219 44.9466 497.098 50.7582 502.91C56.5698 508.721 64.4492 511.99 72.668 512H142C150.219 511.99 158.098 508.721 163.91 502.91C169.721 497.098 172.99 489.219 173 481V445.668H339V481C339.01 489.219 342.279 497.098 348.09 502.91C353.902 508.721 361.781 511.99 370 512H439.332C447.551 511.99 455.43 508.721 461.242 502.91C467.053 497.098 470.322 489.219 470.332 481V445.668H489C495.098 445.661 500.944 443.235 505.255 438.923C509.567 434.612 511.993 428.766 512 422.668V404.5C511.993 398.402 509.567 392.556 505.255 388.245C500.944 383.933 495.098 381.507 489 381.5H470.332V227.316ZM456.332 267.48H351.088L379.244 234.316H456.332V267.48ZM489 105.48C491.386 105.483 493.673 106.432 495.36 108.12C497.048 109.807 497.997 112.094 498 114.48V187C497.997 189.386 497.048 191.673 495.36 193.36C493.673 195.048 491.386 195.997 489 196H470.332V105.488L489 105.48ZM55.668 234.316H132.756L160.912 267.48H55.668V234.316ZM23 196C20.614 195.997 18.3267 195.048 16.6395 193.36C14.9524 191.673 14.0032 189.386 14 187V114.492C14.0032 112.106 14.9524 109.819 16.6395 108.132C18.3267 106.444 20.614 105.495 23 105.492H41.668V196H23ZM159 481C158.995 485.507 157.202 489.828 154.015 493.015C150.828 496.202 146.507 497.995 142 498H72.668C68.1609 497.995 63.84 496.202 60.653 493.015C57.4661 489.828 55.6733 485.507 55.668 481V445.668H159V481ZM456.332 481C456.327 485.507 454.534 489.828 451.347 493.015C448.16 496.202 443.839 497.995 439.332 498H370C365.493 497.995 361.172 496.202 357.985 493.015C354.798 489.828 353.005 485.507 353 481V445.668H456.332V481ZM498 404.5V422.668C497.997 425.054 497.048 427.341 495.36 429.028C493.673 430.716 491.386 431.665 489 431.668H23C20.614 431.665 18.3267 430.716 16.6395 429.028C14.9524 427.341 14.0032 425.054 14 422.668V404.5C14.0032 402.114 14.9524 399.827 16.6395 398.14C18.3267 396.452 20.614 395.503 23 395.5H489C491.386 395.503 493.673 396.452 495.36 398.14C497.048 399.827 497.997 402.114 498 404.5ZM55.668 381.5V281.5H176.032C177.367 281.5 178.675 281.117 179.8 280.398C180.925 279.678 181.821 278.652 182.382 277.44C182.943 276.228 183.146 274.881 182.966 273.558C182.786 272.235 182.232 270.99 181.368 269.972L141.336 222.8C140.68 222.023 139.863 221.399 138.942 220.97C138.02 220.541 137.016 220.318 136 220.316H55.668V67C55.6839 52.9484 61.2729 39.4769 71.2089 29.5409C81.1449 19.6049 94.6164 14.0159 108.668 14H403.332C417.384 14.0159 430.855 19.6049 440.791 29.5409C450.727 39.4769 456.316 52.9484 456.332 67V220.316H376C374.985 220.316 373.982 220.536 373.06 220.963C372.139 221.389 371.321 222.01 370.664 222.784L330.632 269.952C329.768 270.97 329.214 272.215 329.034 273.538C328.854 274.861 329.057 276.208 329.618 277.42C330.179 278.632 331.075 279.658 332.2 280.378C333.325 281.097 334.633 281.48 335.968 281.48H456.332V381.48L55.668 381.5Z" fill="#7C782F"/>
<path d="M423.332 195.372C425.188 195.372 426.969 194.635 428.282 193.322C429.594 192.009 430.332 190.229 430.332 188.372V67C430.324 59.8418 427.476 52.9791 422.414 47.9175C417.353 42.8558 410.49 40.0085 403.332 40H108.668C101.51 40.0085 94.6471 42.8558 89.5854 47.9175C84.5238 52.9791 81.6764 59.8418 81.668 67V188.372C81.668 190.229 82.4055 192.009 83.7182 193.322C85.031 194.635 86.8115 195.372 88.668 195.372H423.332ZM416.332 67V181.372H263V54H403.332C406.778 54.0042 410.083 55.3752 412.52 57.8123C414.957 60.2493 416.328 63.5535 416.332 67ZM95.668 67C95.6722 63.5535 97.0432 60.2493 99.4803 57.8123C101.917 55.3752 105.221 54.0042 108.668 54H249V181.372H95.668V67Z" fill="#7C782F"/>
<path d="M160.912 89.9999C162.187 88.6794 162.892 86.9111 162.876 85.0757C162.86 83.2403 162.123 81.4848 160.825 80.1872C159.527 78.8896 157.771 78.1538 155.936 78.1382C154.1 78.1226 152.332 78.8285 151.012 80.1039L134.76 96.3599C134.11 97.01 133.595 97.7817 133.243 98.631C132.891 99.4803 132.71 100.391 132.71 101.31C132.71 102.229 132.891 103.14 133.243 103.989C133.595 104.838 134.11 105.61 134.76 106.26C135.41 106.91 136.182 107.426 137.031 107.777C137.881 108.129 138.791 108.31 139.71 108.31C140.63 108.31 141.54 108.129 142.389 107.777C143.239 107.426 144.01 106.91 144.66 106.26L160.912 89.9999Z" fill="#7C782F"/>
<path d="M201.86 89.0159C201.22 88.3563 200.456 87.8293 199.611 87.465C198.767 87.1008 197.859 86.9064 196.94 86.8931C196.021 86.8797 195.108 87.0476 194.253 87.3871C193.399 87.7266 192.62 88.2312 191.96 88.8719L142.96 136.472C142.277 137.106 141.728 137.871 141.344 138.721C140.961 139.571 140.751 140.489 140.727 141.421C140.703 142.353 140.865 143.28 141.205 144.149C141.544 145.017 142.054 145.809 142.703 146.478C143.353 147.146 144.13 147.679 144.988 148.043C145.846 148.408 146.768 148.597 147.701 148.6C148.633 148.603 149.557 148.42 150.417 148.062C151.278 147.703 152.058 147.176 152.712 146.512L201.712 98.9119C203.043 97.6185 203.806 95.8499 203.833 93.9945C203.861 92.1391 203.152 90.3485 201.86 89.0159Z" fill="#7C782F"/>
<path d="M200 129.112L183.76 145.36C183.11 146.01 182.595 146.782 182.243 147.631C181.891 148.48 181.71 149.391 181.71 150.31C181.71 151.229 181.891 152.139 182.243 152.989C182.595 153.838 183.11 154.61 183.76 155.26C184.41 155.91 185.182 156.426 186.031 156.777C186.881 157.129 187.791 157.31 188.71 157.31C189.63 157.31 190.54 157.129 191.389 156.777C192.239 156.426 193.01 155.91 193.66 155.26L209.912 139.008C211.225 137.693 211.961 135.912 211.96 134.054C211.958 132.197 211.219 130.416 209.904 129.104C208.59 127.792 206.808 127.055 204.951 127.057C203.093 127.058 201.313 127.797 200 129.112Z" fill="#7C782F"/>
<path d="M307.04 108.312C307.961 108.315 308.874 108.135 309.725 107.782C310.577 107.43 311.35 106.913 312 106.26L328.24 89.9999C329.515 88.6794 330.22 86.9111 330.204 85.0757C330.187 83.2403 329.451 81.4848 328.153 80.1872C326.855 78.8896 325.099 78.1538 323.263 78.1382C321.428 78.1226 319.66 78.8285 318.34 80.1039L302.088 96.3599C301.11 97.3396 300.444 98.5872 300.175 99.945C299.906 101.303 300.045 102.71 300.574 103.989C301.104 105.268 302.001 106.361 303.152 107.13C304.303 107.9 305.656 108.311 307.04 108.312Z" fill="#7C782F"/>
<path d="M310.14 146.356C310.78 147.016 311.544 147.543 312.389 147.907C313.233 148.271 314.141 148.466 315.06 148.479C315.979 148.492 316.892 148.324 317.747 147.985C318.601 147.645 319.38 147.141 320.04 146.5L369.04 98.9001C369.709 98.2621 370.245 97.4978 370.618 96.6514C370.99 95.8049 371.191 94.8932 371.209 93.9687C371.226 93.0442 371.061 92.1253 370.722 91.2651C370.383 90.4049 369.876 89.6205 369.232 88.957C368.588 88.2936 367.819 87.7644 366.969 87.4C366.119 87.0355 365.206 86.843 364.281 86.8336C363.356 86.8242 362.439 86.9981 361.582 87.3452C360.725 87.6924 359.945 88.2059 359.288 88.8561L310.288 136.456C309.628 137.096 309.101 137.86 308.736 138.704C308.371 139.548 308.177 140.456 308.163 141.375C308.149 142.295 308.317 143.208 308.656 144.062C308.995 144.917 309.499 145.696 310.14 146.356Z" fill="#7C782F"/>
<path d="M351.088 145.36C350.438 146.01 349.923 146.782 349.571 147.631C349.219 148.48 349.038 149.391 349.038 150.31C349.038 151.229 349.219 152.14 349.571 152.989C349.923 153.838 350.438 154.61 351.088 155.26C351.739 155.91 352.51 156.426 353.36 156.777C354.209 157.129 355.119 157.31 356.038 157.31C356.958 157.31 357.868 157.129 358.717 156.777C359.567 156.426 360.338 155.91 360.988 155.26L377.24 139.008C378.515 137.687 379.221 135.919 379.204 134.084C379.188 132.248 378.451 130.493 377.153 129.195C375.855 127.898 374.099 127.162 372.264 127.146C370.429 127.131 368.66 127.837 367.34 129.112L351.088 145.36Z" fill="#7C782F"/>
</g>
<defs>
<clipPath id="clip0_10_41">
<rect width="512" height="512" fill="white"/>
</clipPath>
</defs>
</svg>
