<svg width="50" height="50" viewBox="0 0 512 512" fill="none" xmlns="http://www.w3.org/2000/svg">
<path d="M275.957 87.0916L327.301 35.7478L306.088 14.5349L271 49.6228V0.000976562H241V49.6228L205.912 14.5349L184.699 35.7478L236.043 87.0916L0 491.945V511.999H512V491.945L275.957 87.0916ZM314.086 391.14C307.269 371.822 291.081 356.893 271 351.848V275.55C278.741 279.07 288.43 280.833 298.126 280.833C307.862 280.833 317.603 279.058 325.378 275.506L325.527 275.437C331.682 272.626 342.289 272.099 350.117 273.853L411.203 378.626C393.471 377.693 375.077 380.39 361.192 386.733L360.877 386.877C348.724 392.427 329.759 393.85 314.086 391.14ZM197.913 391.145C182.253 393.848 163.265 392.423 151.059 386.847L150.802 386.731C136.919 380.389 118.527 377.692 100.796 378.626L161.882 273.853C169.708 272.098 180.305 272.621 186.409 275.409L186.652 275.52C202.131 282.592 225.455 282.603 240.999 275.55V351.848C220.918 356.893 204.729 371.824 197.913 391.145ZM271 138.151L332.28 243.256C325.326 243.966 318.647 245.598 313 248.177L312.88 248.232C305.302 251.695 290.971 251.695 283.392 248.232L283.209 248.149C279.517 246.463 275.372 245.191 271 244.307V138.151ZM241 244.31C236.617 245.196 232.46 246.472 228.755 248.165L228.607 248.232C221.028 251.695 206.697 251.695 199.119 248.232L198.936 248.149C193.317 245.582 186.66 243.959 179.722 243.252L240.999 138.151V244.31H241ZM40.5258 481.999L81.1247 412.365C97.8396 406.602 123.301 407.149 138.331 414.016L138.657 414.163C154.054 421.197 174.992 423.734 194.415 421.822V481.999H40.5258ZM224.415 481.999V411.576C224.415 394.16 238.584 379.991 256 379.991C273.416 379.991 287.585 394.16 287.585 411.576V481.999H224.415ZM317.585 481.999V421.83C321.746 422.241 325.972 422.459 330.202 422.459C345.713 422.459 361.218 419.702 373.279 414.192L373.663 414.017C388.699 407.147 414.159 406.6 430.874 412.364L471.473 481.998H317.585V481.999Z" fill="#EA9449"/>
</svg>
