<svg 
    xmlns="http://www.w3.org/2000/svg" 
    xmlns:xlink="http://www.w3.org/1999/xlink" 
    version="1.1" 
    x="0px" 
    y="0px" 
    viewBox="0 0 100 100" 
    enable-background="new 0 0 100 100" 
    xml:space="preserve" 
    style="max-width:100%" 
    height="100%">

    <path 
        fill-rule="evenodd" 
        clip-rule="evenodd" 
        d="M29.986,91.226c-0.363-0.025-0.727-0.045-1.09-0.078  
            c-2.034-0.191-3.899-0.854-5.555-2.053c-2.857-2.069-4.684-4.82-5.412-8.282
            c-0.272-1.301-0.348-2.614-0.265-3.939c0.094-1.555,0.404-3.063,0.898-4.538
            c0.789-2.354,1.979-4.49,3.485-6.459c1.135-1.484,2.42-2.828,3.836-4.047
            c1.325-1.142,2.528-2.403,3.655-3.738c1.418-1.683,2.701-3.467,3.968-5.263
            c1.12-1.588,2.221-3.186,3.41-4.721c0.894-1.158,1.837-2.273,2.888-3.292
            c1.315-1.273,2.766-2.351,4.476-3.05c1.283-0.525,2.616-0.803,4.003-0.832
            c1.568-0.036,3.117,0.119,4.642,0.492c2.334,0.573,4.356,1.708,6.097,3.36
            c1.191,1.135,2.199,2.419,3.136,3.763c0.994,1.425,1.907,2.902,2.849,4.362
            c1.062,1.644,2.158,3.262,3.383,4.792c1.22,1.525,2.566,2.932,4.036,4.219
            c1.778,1.557,3.356,3.29,4.7,5.236c1.146,1.669,2.08,3.444,2.732,5.362
            c0.508,1.494,0.827,3.022,0.908,4.601c0.125,2.398-0.289,4.691-1.377,6.848
            c-1.007,1.999-2.465,3.604-4.296,4.879c-1.346,0.937-2.798,1.649-4.397,2.045
            c-0.566,0.142-1.141,0.244-1.722,0.3c-0.081,0.008-0.159,0.023-0.237,0.035
            c-0.076,0.043-0.16,0.011-0.24,0.021c-0.066,0.009-0.136-0.021-0.199,0.021
            c-0.496,0-0.994,0-1.49,0c-0.059-0.043-0.126-0.013-0.189-0.021c-0.058,0-0.113,0-0.17,0
            c-0.047,0-0.098,0-0.144,0c-1.271-0.041-2.505-0.306-3.735-0.591c-2.084-0.486-4.127-1.125-6.2-1.653
            c-1.679-0.426-3.372-0.772-5.095-0.969c-1.194-0.137-2.391-0.152-3.585-0.111c-0.955,0.032-1.903,0.179-2.842,0.354
            c-1.854,0.349-3.671,0.848-5.489,1.344c-1.923,0.528-3.846,1.053-5.815,1.375c-0.801,0.129-1.603,0.24-2.417,0.232
            c-0.167-0.002-0.333,0.023-0.502,0.019C30.41,91.237,30.198,91.275,29.986,91.226z" 
        style="" 
        fill="currentColor">
    </path>

    <path 
        fill-rule="evenodd" 
        clip-rule="evenodd" 
        d="M66.723,8.768c2.68,0.322,4.727,1.684,6.291,3.832  
            c1.072,1.473,1.746,3.125,2.164,4.891c0.357,1.521,0.492,3.065,0.441,4.627
            c-0.094,2.87-0.768,5.596-2.014,8.182c-0.863,1.792-1.977,3.408-3.397,4.802
            c-1.265,1.239-2.696,2.229-4.366,2.846c-1.173,0.433-2.379,0.647-3.629,0.573
            c-2.164-0.125-4.001-0.985-5.545-2.487c-1.316-1.282-2.213-2.832-2.834-4.548
            c-0.434-1.2-0.705-2.437-0.846-3.702c-0.098-0.867-0.137-1.735-0.109-2.603
            c0.064-2.049,0.432-4.044,1.098-5.981c0.707-2.062,1.709-3.963,3.077-5.663
            c1.151-1.43,2.496-2.639,4.11-3.532c1.186-0.657,2.449-1.082,3.801-1.235
            c0.041-0.023,0.086-0.013,0.128-0.016c0.043,0,0.086,0,0.128,0
            c0.062-0.008,0.128,0.022,0.183-0.022c0.295,0,0.585,0,0.878,0
            c0.057,0.045,0.121,0.015,0.183,0.022c0.044,0,0.085,0,0.129,0
            C66.635,8.755,66.681,8.744,66.723,8.768z" 
        style="" 
        fill="currentColor">
    </path>

    <path 
        fill-rule="evenodd" 
        clip-rule="evenodd" 
        d="M5.081,40.413c0.042-0.818,0.189-1.621,0.404-2.411  
            c0.416-1.535,1.097-2.934,2.158-4.132c1.186-1.337,2.652-2.202,4.408-2.551
            c1.426-0.282,2.833-0.161,4.216,0.265c1.59,0.491,2.996,1.326,4.246,2.413
            c1.942,1.683,3.334,3.754,4.298,6.124c0.504,1.241,0.853,2.526,1.046,3.851
            c0.094,0.643,0.139,1.29,0.152,1.94c0.023,1.234-0.101,2.448-0.407,3.642
            c-0.408,1.593-1.095,3.043-2.19,4.284c-1.257,1.424-2.824,2.31-4.702,2.615
            c-1.378,0.224-2.733,0.073-4.059-0.355c-1.783-0.579-3.311-1.573-4.657-2.86
            c-1.313-1.252-2.356-2.706-3.169-4.323c-0.797-1.586-1.347-3.258-1.612-5.017
            c-0.046-0.311-0.084-0.622-0.126-0.932c-0.033-0.142-0.02-0.287-0.054-0.428
            c-0.016-0.059-0.007-0.115-0.01-0.176C5.012,42.287,5.046,42.207,5,42.132
            c0-0.38,0-0.759,0-1.14c0.071-0.104,0.036-0.22,0.044-0.331C5.05,40.578,5.029,40.49,5.081,40.413z" 
        style="" 
        fill="currentColor">
    </path>

    <path 
        fill-rule="evenodd" 
        clip-rule="evenodd" 
        d="M23.897,22.127c0.009-2.263,0.331-4.304,1.088-6.268  
            c0.571-1.485,1.355-2.843,2.447-4.012c1.176-1.262,2.573-2.167,4.258-2.593
            c1.685-0.428,3.341-0.306,4.969,0.283c1.434,0.52,2.685,1.34,3.796,2.375
            c1.774,1.65,3.044,3.642,3.949,5.875c0.575,1.42,0.971,2.888,1.197,4.401
            c0.128,0.858,0.202,1.723,0.22,2.594c0.019,1.096-0.05,2.188-0.231,3.27
            c-0.376,2.261-1.143,4.367-2.511,6.229c-0.851,1.155-1.884,2.11-3.152,2.798
            c-1.417,0.768-2.934,1.089-4.539,0.965c-1.451-0.111-2.789-0.585-4.037-1.325
            c-1.628-0.964-2.946-2.264-4.043-3.794c-1.301-1.817-2.195-3.826-2.761-5.985
            c-0.31-1.181-0.508-2.382-0.598-3.6C23.913,22.883,23.882,22.423,23.897,22.127z" 
        style="" 
        fill="currentColor">
    </path>

    <path 
        fill-rule="evenodd" 
        clip-rule="evenodd" 
        d="M94.998,41.739c0,0.087,0,0.175,0,0.263c-0.1,2.182-0.684,4.236-1.627,6.195  
            c-0.742,1.535-1.689,2.934-2.861,4.174c-1.504,1.594-3.249,2.837-5.324,3.583
            c-1.243,0.447-2.523,0.667-3.846,0.594c-1.953-0.11-3.658-0.818-5.092-2.15
            c-1.184-1.101-1.965-2.455-2.457-3.979c-0.443-1.366-0.622-2.774-0.577-4.208
            c0.097-3.153,1.094-6.019,2.821-8.642c0.583-0.888,1.252-1.708,2.002-2.458
            c1.543-1.537,3.307-2.719,5.396-3.389c1.188-0.378,2.402-0.551,3.646-0.454
            c1.9,0.147,3.557,0.866,4.947,2.177c1.254,1.183,2.045,2.644,2.523,4.284
            c0.264,0.906,0.418,1.833,0.449,2.778c0,0.088,0,0.177,0,0.265
            C94.988,41.094,94.989,41.416,94.998,41.739z" 
        style="" 
        fill="currentColor">
    </path>
</svg>
