<svg width="512" height="512" viewBox="0 0 512 512" fill="none" xmlns="http://www.w3.org/2000/svg">
<path d="M413.6 130.8C411.6 130.8 410 130 408.8 128.8C324.4 44.4 187.6 44.4 103.2 128.8C100.4 131.6 96 131.6 93.2 128.8L69.6 105.2C66.8 102.4 66.8 98 69.6 95.2C172.4 -7.60002 339.2 -7.60002 442 95.2C444.8 98 444.8 102.4 442 105.2L418.4 128.8C417.6 130 415.6 130.8 413.6 130.8ZM256 51.6C314.8 51.6 371.2 73.6 413.6 114L427.2 100.4C331.2 9.59998 180.8 9.59998 84.8 100.4L98.4 114C140.8 73.6 197.2 51.2 256 51.6Z" fill="#7C782F"/>
<path d="M361.2 183.2C359.2 183.2 357.6 182.4 356.4 181.2C301.2 126 211.6 126 156 181.2C153.2 184 148.8 184 146 181.2L122.4 157.6C119.6 154.8 119.6 150.4 122.4 147.6C196.4 74 315.6 74 389.6 147.6C392.4 150.4 392.4 154.8 389.6 157.6L366 181.2C364.8 182.4 362.8 183.2 361.2 183.2ZM256 126C294.8 126 332.4 140.4 361.2 166.8L374.8 153.2C307.6 91.6 204.4 91.6 137.6 153.2L151.2 166.8C179.6 140.4 217.2 125.6 256 126Z" fill="#7C782F"/>
<path d="M308.4 236C306.4 236 304.8 235.2 303.6 234C277.2 207.6 234.8 207.6 208.4 234C205.6 236.8 201.2 236.8 198.4 234L174.8 210.4C172 207.6 172 203.2 174.8 200.4C219.6 156 292.4 156 336.8 200.4C339.6 203.2 339.6 207.6 336.8 210.4L313.2 234C312 235.2 310.4 236 308.4 236ZM256 200.4C275.2 200.4 293.6 207.2 308.4 219.6L322 206C284 173.2 228 173.2 190 206L203.6 219.6C218.4 206.8 236.8 200 256 200.4Z" fill="#7C782F"/>
<path d="M256 321.6C234 321.6 216 303.6 216 281.6C216 259.6 234 241.6 256 241.6C278 241.6 296 259.6 296 281.6C296 303.6 278 321.6 256 321.6ZM256 255.6C241.6 255.6 230 267.2 230 281.6C230 296 241.6 307.6 256 307.6C270.4 307.6 282 296 282 281.6C282 267.2 270.4 255.6 256 255.6Z" fill="#7C782F"/>
<path d="M416.8 493.6H95.2C81.2 493.6 70.4 482.4 70 468.4V373.6C70 359.6 81.2 348.8 95.2 348.4H416.8C430.8 348.4 441.6 359.6 442 373.6V468.8C441.6 482.4 430.8 493.6 416.8 493.6ZM95.2 362.8C89.2 362.8 84.4 367.6 84 374V469.2C84 475.2 88.8 480 95.2 480.4H416.8C422.8 480.4 428 475.6 428 469.2V373.6C428 367.6 423.2 362.8 416.8 362.4H95.2V362.8Z" fill="#7C782F"/>
<path d="M162.8 399.6C166.8 399.6 170 396.4 170 392.4C170 388.4 166.8 385.2 162.8 385.2H125.6C121.6 385.2 118.4 388.4 118.4 392.4V421.2V450C118.4 454 121.6 457.2 125.6 457.2C129.6 457.2 132.8 454 132.8 450V428.4H163.2C167.2 428.4 170.4 425.2 170.4 421.2C170.4 417.2 167.2 414 163.2 414H132.8V399.2H162.8V399.6Z" fill="#7C782F"/>
<path d="M230.001 385.6H200.001C196.001 385.6 192.801 388.8 192.801 392.8V421.6V450.4C192.801 454.4 196.001 457.6 200.001 457.6C204.001 457.6 207.201 454.4 207.201 450.4V428.8H214.001L232.001 454.4C233.201 456.4 235.601 457.6 237.601 457.6C238.801 457.6 240.401 457.2 241.601 456.4C244.801 454.4 245.601 450 243.201 446.8L230.801 428.8C238.401 428.4 244.401 422 244.401 414.4V400C244.401 392 238.001 385.6 230.001 385.6ZM207.201 414.4V399.6H230.001C230.401 399.6 230.401 400 230.401 400V413.6C230.401 414 230.001 414 230.001 414H217.601H207.201V414.4Z" fill="#7C782F"/>
<path d="M312.001 399.6C316.001 399.6 319.201 396.4 319.201 392.4C319.201 388.4 316.001 385.6 312.001 385.6H274.801C270.801 385.6 267.601 388.8 267.601 392.8V421.6V450.4C267.601 454.4 270.801 457.6 274.801 457.6H312.001C316.001 457.6 319.201 454.4 319.201 450.4C319.201 446.4 316.001 443.2 312.001 443.2H281.601V428.4H312.001C316.001 428.4 319.201 425.2 319.201 421.2C319.201 417.2 316.001 414 312.001 414H281.601V399.2H312.001V399.6Z" fill="#7C782F"/>
<path d="M386.4 428.4C390.4 428.4 393.6 425.2 393.6 421.2C393.6 417.2 390.4 414 386.4 414H356V399.2H386.4C390.4 399.2 393.6 396 393.6 392C393.6 388 390.4 384.8 386.4 384.8H349.2C345.2 384.8 342 388 342 392V420.8V449.6C342 453.6 345.2 456.8 349.2 456.8H386.4C390.4 456.8 393.6 453.6 393.6 449.6C393.6 445.6 390.4 442.4 386.4 442.4H356V427.6H386.4V428.4Z" fill="#7C782F"/>
</svg>
