<svg width="512" height="512" viewBox="0 0 512 512" fill="none" xmlns="http://www.w3.org/2000/svg">
<path d="M336 305H308V251C308 246.226 306.104 241.648 302.728 238.272C299.352 234.896 294.774 233 290 233C285.226 233 280.648 234.896 277.272 238.272C273.896 241.648 272 246.226 272 251V305H240V251C240 246.226 238.104 241.648 234.728 238.272C231.352 234.896 226.774 233 222 233C217.226 233 212.648 234.896 209.272 238.272C205.896 241.648 204 246.226 204 251V305H176C175.081 304.999 174.17 305.18 173.321 305.532C172.471 305.883 171.699 306.399 171.049 307.049C170.399 307.699 169.883 308.471 169.532 309.321C169.18 310.17 168.999 311.081 169 312V344C168.999 344.919 169.18 345.83 169.532 346.679C169.883 347.529 170.399 348.301 171.049 348.951C171.699 349.601 172.471 350.117 173.321 350.468C174.17 350.82 175.081 351.001 176 351H185.6L191.7 418.084C192.195 423.81 194.826 429.14 199.07 433.015C203.314 436.89 208.861 439.026 214.608 439H233.008V484C233.008 485.857 233.746 487.637 235.058 488.95C236.371 490.262 238.151 491 240.008 491C241.865 491 243.645 490.262 244.958 488.95C246.271 487.637 247.008 485.857 247.008 484V439H265.008V484C265.008 485.857 265.746 487.637 267.058 488.95C268.371 490.262 270.151 491 272.008 491C273.865 491 275.645 490.262 276.958 488.95C278.27 487.637 279.008 485.857 279.008 484V439H297.408C303.155 439.026 308.702 436.89 312.946 433.015C317.19 429.14 319.821 423.81 320.316 418.084L326.4 351H336C336.919 351.001 337.83 350.82 338.679 350.468C339.529 350.117 340.301 349.601 340.951 348.951C341.601 348.301 342.117 347.529 342.468 346.679C342.82 345.83 343.001 344.919 343 344V312C343.001 311.081 342.82 310.17 342.468 309.321C342.117 308.471 341.601 307.699 340.951 307.049C340.301 306.399 339.529 305.883 338.679 305.532C337.83 305.18 336.919 304.999 336 305ZM286 251C286 249.939 286.421 248.922 287.172 248.172C287.922 247.421 288.939 247 290 247C291.061 247 292.078 247.421 292.828 248.172C293.579 248.922 294 249.939 294 251V305H286V251ZM218 251C218 249.939 218.421 248.922 219.172 248.172C219.922 247.421 220.939 247 222 247C223.061 247 224.078 247.421 224.828 248.172C225.579 248.922 226 249.939 226 251V305H218V251ZM306.352 416.8C306.158 419.04 305.129 421.126 303.468 422.642C301.807 424.158 299.637 424.994 297.388 424.984H214.612C212.363 424.994 210.193 424.158 208.532 422.642C206.871 421.126 205.842 419.04 205.648 416.8L199.668 351H312.332L306.352 416.8ZM329 337H183V319H329V337Z" fill="#7C782F"/>
<path d="M336 161H326.4L320.296 93.916C319.801 88.1903 317.17 82.8604 312.926 78.9853C308.682 75.1102 303.135 72.9736 297.388 73H278.988V28C278.988 26.1435 278.25 24.363 276.938 23.0503C275.625 21.7375 273.845 21 271.988 21C270.131 21 268.351 21.7375 267.038 23.0503C265.725 24.363 264.988 26.1435 264.988 28V73H246.988V28C246.988 26.1435 246.25 24.363 244.938 23.0503C243.625 21.7375 241.845 21 239.988 21C238.131 21 236.351 21.7375 235.038 23.0503C233.725 24.363 232.988 26.1435 232.988 28V73H214.588C208.841 72.9736 203.294 75.1102 199.05 78.9853C194.806 82.8604 192.175 88.1903 191.68 93.916L185.6 161H176C175.081 160.999 174.17 161.18 173.321 161.532C172.471 161.883 171.699 162.399 171.049 163.049C170.399 163.699 169.883 164.471 169.532 165.321C169.18 166.17 168.999 167.081 169 168V200C168.999 200.919 169.18 201.83 169.532 202.679C169.883 203.529 170.399 204.301 171.049 204.951C171.699 205.601 172.471 206.117 173.321 206.468C174.17 206.82 175.081 207.001 176 207H336C336.919 207.001 337.83 206.82 338.679 206.468C339.529 206.117 340.301 205.601 340.951 204.951C341.601 204.301 342.117 203.529 342.468 202.679C342.82 201.83 343.001 200.919 343 200V168C343.001 167.081 342.82 166.17 342.468 165.321C342.117 164.471 341.601 163.699 340.951 163.049C340.301 162.399 339.529 161.883 338.679 161.532C337.83 161.18 336.919 160.999 336 161ZM205.648 95.2C205.842 92.9596 206.871 90.8741 208.532 89.3578C210.193 87.8416 212.363 87.0056 214.612 87.016H297.388C299.637 87.0056 301.807 87.8416 303.468 89.3578C305.129 90.8741 306.158 92.9596 306.352 95.2L312.352 161.016H199.668L205.648 95.2ZM329 193H183V175H329V193Z" fill="#7C782F"/>
<path d="M420 249H374.8C372.943 249 371.163 249.737 369.85 251.05C368.537 252.363 367.8 254.143 367.8 256C367.8 257.857 368.537 259.637 369.85 260.95C371.163 262.262 372.943 263 374.8 263H420C421.856 263 423.637 262.262 424.95 260.95C426.262 259.637 427 257.857 427 256C427 254.143 426.262 252.363 424.95 251.05C423.637 249.737 421.856 249 420 249Z" fill="#7C782F"/>
<path d="M144.192 256C144.193 255.081 144.012 254.17 143.66 253.321C143.309 252.471 142.793 251.699 142.143 251.049C141.493 250.399 140.721 249.883 139.871 249.532C139.022 249.18 138.111 248.999 137.192 249H92C90.1435 249 88.363 249.737 87.0503 251.05C85.7375 252.363 85 254.143 85 256C85 257.857 85.7375 259.637 87.0503 260.95C88.363 262.262 90.1435 263 92 263H137.2C138.119 262.999 139.028 262.818 139.877 262.466C140.726 262.114 141.496 261.598 142.146 260.948C142.795 260.298 143.31 259.527 143.661 258.678C144.012 257.829 144.193 256.919 144.192 256Z" fill="#7C782F"/>
<path d="M372.572 228L394.4 222.164C396.193 221.683 397.722 220.509 398.65 218.901C399.578 217.292 399.829 215.381 399.348 213.588C398.867 211.795 397.693 210.266 396.084 209.338C394.476 208.41 392.565 208.159 390.772 208.64L368.944 214.488C368.027 214.698 367.161 215.092 366.4 215.644C365.638 216.196 364.996 216.897 364.511 217.703C364.026 218.509 363.709 219.405 363.578 220.337C363.447 221.269 363.505 222.217 363.749 223.126C363.993 224.034 364.418 224.885 364.998 225.625C365.578 226.366 366.301 226.983 367.125 227.438C367.948 227.893 368.855 228.177 369.791 228.274C370.727 228.37 371.673 228.277 372.572 228Z" fill="#7C782F"/>
<path d="M394.4 289.836L372.572 284C370.779 283.519 368.868 283.77 367.259 284.698C365.651 285.626 364.477 287.155 363.996 288.948C363.515 290.741 363.766 292.652 364.694 294.261C365.622 295.869 367.151 297.043 368.944 297.524L390.772 303.372C391.66 303.61 392.586 303.671 393.498 303.551C394.409 303.432 395.288 303.134 396.085 302.674C396.881 302.215 397.579 301.603 398.139 300.874C398.699 300.144 399.11 299.312 399.348 298.424C399.586 297.536 399.647 296.61 399.527 295.698C399.408 294.787 399.11 293.908 398.65 293.111C398.191 292.315 397.579 291.617 396.85 291.057C396.12 290.497 395.288 290.086 394.4 289.848V289.836Z" fill="#7C782F"/>
<path d="M143.056 214.488L121.228 208.64C120.34 208.402 119.414 208.341 118.502 208.461C117.591 208.58 116.712 208.878 115.915 209.338C115.119 209.797 114.421 210.409 113.861 211.138C113.301 211.868 112.89 212.7 112.652 213.588C112.414 214.476 112.353 215.402 112.473 216.314C112.592 217.225 112.891 218.104 113.35 218.901C113.809 219.697 114.421 220.395 115.151 220.955C115.88 221.515 116.712 221.926 117.6 222.164L139.428 228C141.222 228.481 143.133 228.23 144.741 227.302C146.349 226.374 147.523 224.845 148.004 223.052C148.485 221.259 148.234 219.348 147.306 217.739C146.378 216.131 144.85 214.957 143.056 214.476V214.488Z" fill="#7C782F"/>
<path d="M139.428 284L117.6 289.836C115.807 290.317 114.278 291.491 113.35 293.099C112.422 294.708 112.171 296.619 112.652 298.412C113.133 300.205 114.307 301.734 115.915 302.662C117.524 303.59 119.435 303.841 121.228 303.36L143.056 297.512C144.788 296.978 146.245 295.794 147.121 294.208C147.998 292.622 148.225 290.757 147.755 289.007C147.285 287.257 146.155 285.758 144.602 284.824C143.049 283.89 141.194 283.595 139.428 284Z" fill="#7C782F"/>
</svg>
