<svg width="512" height="512" viewBox="0 0 512 512" fill="none" xmlns="http://www.w3.org/2000/svg">
<path d="M403.248 0H108.748C101.59 0.0084688 94.7272 2.85582 89.6655 7.91747C84.6039 12.9791 81.7565 19.8418 81.748 27V321.488C81.7565 328.646 84.6039 335.509 89.6655 340.571C94.7272 345.632 101.59 348.48 108.748 348.488H177.376V378.252C177.376 380.109 178.114 381.889 179.426 383.202C180.739 384.515 182.52 385.252 184.376 385.252H225.748V504.988C225.748 506.845 226.486 508.625 227.798 509.938C229.111 511.25 230.892 511.988 232.748 511.988H279.248C280.167 511.989 281.078 511.808 281.927 511.456C282.777 511.105 283.549 510.589 284.199 509.939C284.849 509.289 285.365 508.517 285.716 507.667C286.068 506.818 286.249 505.907 286.248 504.988V385.252H327.624C329.481 385.252 331.261 384.515 332.574 383.202C333.887 381.889 334.624 380.109 334.624 378.252V348.488H403.248C410.406 348.48 417.269 345.632 422.331 340.571C427.392 335.509 430.24 328.646 430.248 321.488V26.988C430.236 19.8318 427.388 12.9723 422.326 7.91322C417.265 2.85417 410.404 0.00846188 403.248 0ZM272.248 498H239.748V385.252H272.248V498ZM320.624 371.252H191.376V348.488H320.624V371.252ZM416.248 321.488C416.244 324.935 414.873 328.239 412.436 330.676C409.999 333.113 406.695 334.484 403.248 334.488H108.748C105.302 334.484 101.997 333.113 99.5603 330.676C97.1233 328.239 95.7523 324.935 95.748 321.488V26.988C95.7523 23.5415 97.1233 20.2373 99.5603 17.8003C101.997 15.3632 105.302 13.9922 108.748 13.988H403.248C406.695 13.9922 409.999 15.3632 412.436 17.8003C414.873 20.2373 416.244 23.5415 416.248 26.988V321.488Z" fill="#7C782F"/>
<path d="M391.248 32H120.748C118.892 32 117.111 32.7375 115.798 34.0503C114.486 35.363 113.748 37.1435 113.748 39V309.488C113.748 311.345 114.486 313.125 115.798 314.438C117.111 315.75 118.892 316.488 120.748 316.488H391.248C392.167 316.489 393.078 316.308 393.927 315.956C394.777 315.605 395.549 315.089 396.199 314.439C396.849 313.789 397.365 313.017 397.716 312.167C398.068 311.318 398.249 310.407 398.248 309.488V38.988C398.246 37.1332 397.507 35.3552 396.195 34.0448C394.882 32.7344 393.103 31.9989 391.248 32ZM384.248 302.5H127.748V46H384.248V302.5Z" fill="#7C782F"/>
<path d="M215.376 165.24H269.008C278.19 165.24 286.995 161.593 293.488 155.1C299.981 148.608 303.628 139.802 303.628 130.62C303.628 121.438 299.981 112.632 293.488 106.14C286.995 99.6475 278.19 96 269.008 96H215.376C214.457 95.9995 213.546 96.1802 212.697 96.5318C211.847 96.8834 211.075 97.399 210.425 98.0491C209.775 98.6992 209.259 99.4711 208.908 100.321C208.556 101.17 208.375 102.081 208.376 103V158.24C208.376 160.097 209.113 161.877 210.426 163.19C211.739 164.502 213.519 165.24 215.376 165.24ZM222.376 110H269.008C274.477 110 279.722 112.172 283.589 116.039C287.456 119.906 289.628 125.151 289.628 130.62C289.628 136.089 287.456 141.334 283.589 145.201C279.722 149.068 274.477 151.24 269.008 151.24H222.376V110Z" fill="#7C782F"/>
<path d="M183.376 284.488H215.376C217.232 284.488 219.013 283.75 220.326 282.438C221.638 281.125 222.376 279.345 222.376 277.488V197.24H269.008C286.677 197.24 303.622 190.221 316.115 177.727C328.609 165.234 335.628 148.289 335.628 130.62C335.628 112.951 328.609 96.0062 316.115 83.5125C303.622 71.0189 286.677 64 269.008 64H183.376C182.457 63.9995 181.546 64.1802 180.697 64.5318C179.847 64.8834 179.075 65.399 178.425 66.0491C177.775 66.6992 177.259 67.4711 176.908 68.3206C176.556 69.1701 176.375 70.0806 176.376 71V277.488C176.375 278.407 176.556 279.318 176.908 280.167C177.259 281.017 177.775 281.789 178.425 282.439C179.075 283.089 179.847 283.605 180.697 283.956C181.546 284.308 182.457 284.489 183.376 284.488ZM190.376 78H269.008C282.964 78 296.348 83.5439 306.216 93.412C316.084 103.28 321.628 116.664 321.628 130.62C321.628 144.576 316.084 157.96 306.216 167.828C296.348 177.696 282.964 183.24 269.008 183.24H215.376C214.457 183.239 213.546 183.42 212.697 183.772C211.847 184.123 211.075 184.639 210.425 185.289C209.775 185.939 209.259 186.711 208.908 187.561C208.556 188.41 208.375 189.321 208.376 190.24V270.488H190.376V78Z" fill="#7C782F"/>
</svg>
