<svg width="512" height="512" viewBox="0 0 512 512" fill="none" xmlns="http://www.w3.org/2000/svg">
<path d="M475.744 290.848C474.327 263.517 464.579 237.274 447.81 215.645C431.04 194.017 408.053 178.04 381.936 169.86V141.06C381.936 139.204 381.198 137.423 379.885 136.11C378.573 134.798 376.792 134.06 374.936 134.06H371.132C369.307 102.76 355.598 73.3378 332.805 51.8081C310.012 30.2784 279.857 18.2667 248.504 18.228H141.068C108.499 18.264 77.2755 31.2176 54.2463 54.2468C31.2171 77.276 18.2635 108.5 18.2275 141.068V486.772C18.2275 488.629 18.965 490.409 20.2778 491.722C21.5905 493.035 23.371 493.772 25.2275 493.772C27.0841 493.772 28.8645 493.035 30.1773 491.722C31.49 490.409 32.2275 488.629 32.2275 486.772V141.068C32.2604 112.212 43.7379 84.5471 64.1423 64.1428C84.5466 43.7384 112.211 32.2608 141.068 32.228H248.504C276.145 32.2642 302.74 42.8038 322.902 61.7125C343.065 80.6212 355.287 106.486 357.096 134.068H326.4C324.634 114.619 315.667 96.5316 301.257 83.3517C286.846 70.1719 268.032 62.8508 248.504 62.824H141.068C120.322 62.8463 100.433 71.0968 85.7638 85.7655C71.0944 100.434 62.8428 120.323 62.8195 141.068V486.772C62.8195 488.629 63.557 490.409 64.8698 491.722C66.1825 493.035 67.963 493.772 69.8195 493.772C71.6761 493.772 73.4565 493.035 74.7693 491.722C76.082 490.409 76.8195 488.629 76.8195 486.772V467.404H109.536V486.772C109.536 488.629 110.273 490.409 111.586 491.722C112.899 493.035 114.679 493.772 116.536 493.772C118.392 493.772 120.173 493.035 121.485 491.722C122.798 490.409 123.536 488.629 123.536 486.772V405.772C123.536 403.916 122.798 402.135 121.485 400.822C120.173 399.51 118.392 398.772 116.536 398.772C114.679 398.772 112.899 399.51 111.586 400.822C110.273 402.135 109.536 403.916 109.536 405.772V425.144H76.7995V141.068C76.8186 124.031 83.5966 107.698 95.6457 95.6532C107.695 83.6086 124.031 76.8367 141.068 76.824H248.504C264.323 76.845 279.58 82.6945 291.358 93.2546C303.136 103.815 310.61 118.345 312.352 134.068H309.152C307.295 134.068 305.515 134.806 304.202 136.118C302.889 137.431 302.152 139.212 302.152 141.068V169.868C276.038 178.049 253.053 194.026 236.285 215.652C219.517 237.279 209.769 263.519 208.352 290.848C203.462 291.208 198.889 293.4 195.546 296.987C192.204 300.573 190.339 305.289 190.324 310.192V341.22C190.324 343.077 191.061 344.857 192.374 346.17C193.687 347.483 195.467 348.22 197.324 348.22H486.772C488.628 348.22 490.409 347.483 491.721 346.17C493.034 344.857 493.772 343.077 493.772 341.22V310.192C493.757 305.289 491.893 300.572 488.55 296.986C485.207 293.399 480.633 291.207 475.744 290.848ZM109.536 439.144V453.404H76.7995V439.144H109.536ZM367.936 148.068V168.116H316.16V148.068H367.936ZM310.196 182.116H373.9C398.027 188.795 419.461 202.855 435.196 222.328C450.931 241.8 460.179 265.708 461.644 290.7H222.444C223.909 265.707 233.159 241.799 248.895 222.326C264.632 202.854 286.066 188.794 310.196 182.116ZM479.772 334.22H204.324V310.192C204.326 308.736 204.905 307.34 205.934 306.311C206.964 305.281 208.36 304.702 209.816 304.7H474.276C475.732 304.701 477.129 305.28 478.159 306.31C479.19 307.339 479.769 308.735 479.772 310.192V334.22Z" fill="#7C782F"/>
<path d="M342.048 368.94C340.191 368.94 338.411 369.678 337.098 370.99C335.785 372.303 335.048 374.084 335.048 375.94V390.24C335.048 392.097 335.785 393.877 337.098 395.19C338.411 396.503 340.191 397.24 342.048 397.24C343.904 397.24 345.685 396.503 346.998 395.19C348.31 393.877 349.048 392.097 349.048 390.24V375.94C349.047 374.084 348.309 372.304 346.996 370.991C345.684 369.679 343.904 368.941 342.048 368.94Z" fill="#7C782F"/>
<path d="M342.048 465.472C340.191 465.472 338.411 466.21 337.098 467.522C335.785 468.835 335.048 470.615 335.048 472.472V486.772C335.048 488.629 335.785 490.409 337.098 491.722C338.411 493.035 340.191 493.772 342.048 493.772C343.904 493.772 345.685 493.035 346.998 491.722C348.31 490.409 349.048 488.629 349.048 486.772V472.472C349.047 470.616 348.309 468.836 346.996 467.523C345.684 466.211 343.904 465.473 342.048 465.472Z" fill="#7C782F"/>
<path d="M342.048 417.2C341.128 417.2 340.218 417.38 339.368 417.732C338.519 418.083 337.747 418.599 337.097 419.249C336.447 419.899 335.931 420.671 335.58 421.521C335.228 422.37 335.047 423.281 335.048 424.2V438.5C335.048 440.357 335.785 442.137 337.098 443.45C338.411 444.763 340.191 445.5 342.048 445.5C343.904 445.5 345.685 444.763 346.998 443.45C348.31 442.137 349.048 440.357 349.048 438.5V424.2C349.048 422.344 348.31 420.563 346.998 419.25C345.685 417.938 343.904 417.2 342.048 417.2Z" fill="#7C782F"/>
<path d="M450.924 387.844L447.1 374.068C446.603 372.279 445.416 370.76 443.799 369.847C442.182 368.933 440.269 368.699 438.48 369.196C436.691 369.693 435.172 370.88 434.259 372.497C433.345 374.114 433.111 376.027 433.608 377.816L437.432 391.592C437.842 393.066 438.724 394.365 439.941 395.291C441.159 396.216 442.646 396.718 444.176 396.72C444.81 396.719 445.441 396.633 446.052 396.464C447.841 395.966 449.359 394.779 450.272 393.163C451.186 391.546 451.42 389.633 450.924 387.844Z" fill="#7C782F"/>
<path d="M472.927 467.08C472.43 465.291 471.243 463.772 469.626 462.859C468.01 461.945 466.096 461.711 464.307 462.208C462.518 462.705 461 463.892 460.086 465.509C459.172 467.126 458.938 469.039 459.435 470.828L463.259 484.604C463.67 486.078 464.551 487.377 465.769 488.303C466.986 489.228 468.473 489.73 470.003 489.732C470.637 489.731 471.268 489.645 471.879 489.476C473.668 488.978 475.186 487.791 476.1 486.175C477.013 484.558 477.247 482.645 476.751 480.856L472.927 467.08Z" fill="#7C782F"/>
<path d="M463.84 434.352L460 420.576C459.754 419.69 459.336 418.861 458.77 418.137C458.204 417.413 457.501 416.807 456.7 416.354C455.9 415.902 455.018 415.611 454.106 415.499C453.193 415.387 452.268 415.456 451.382 415.702C450.496 415.948 449.667 416.366 448.943 416.932C448.218 417.498 447.613 418.201 447.16 419.002C446.707 419.802 446.417 420.683 446.305 421.596C446.193 422.509 446.262 423.434 446.508 424.32L450.332 438.096C450.741 439.57 451.621 440.87 452.838 441.797C454.055 442.723 455.542 443.226 457.072 443.228C457.706 443.228 458.337 443.141 458.948 442.968C459.836 442.725 460.666 442.309 461.393 441.744C462.12 441.179 462.727 440.476 463.182 439.675C463.636 438.875 463.928 437.993 464.041 437.079C464.154 436.166 464.086 435.239 463.84 434.352Z" fill="#7C782F"/>
<path d="M394.184 397.072C395.096 396.956 395.976 396.661 396.774 396.205C397.572 395.749 398.273 395.14 398.835 394.413C399.398 393.686 399.812 392.856 400.054 391.969C400.295 391.082 400.36 390.156 400.244 389.244L398.444 375.06C398.335 374.143 398.045 373.256 397.591 372.451C397.138 371.647 396.529 370.939 395.801 370.371C395.073 369.802 394.24 369.384 393.349 369.139C392.458 368.894 391.528 368.828 390.611 368.944C389.695 369.06 388.81 369.357 388.009 369.817C387.208 370.277 386.506 370.891 385.943 371.623C385.38 372.356 384.967 373.192 384.729 374.085C384.491 374.978 384.432 375.909 384.556 376.824L386.356 391.008C386.571 392.697 387.393 394.25 388.67 395.376C389.947 396.502 391.59 397.125 393.292 397.128C393.59 397.127 393.888 397.108 394.184 397.072Z" fill="#7C782F"/>
<path d="M410.588 470.824C410.482 469.904 410.195 469.014 409.743 468.206C409.29 467.398 408.682 466.688 407.954 466.116C407.225 465.545 406.39 465.124 405.498 464.877C404.605 464.63 403.672 464.563 402.754 464.68C401.835 464.796 400.949 465.094 400.146 465.555C399.343 466.017 398.64 466.633 398.076 467.368C397.513 468.103 397.102 468.943 396.866 469.838C396.629 470.733 396.573 471.667 396.7 472.584L398.5 486.772C398.715 488.461 399.537 490.014 400.814 491.14C402.09 492.266 403.733 492.889 405.436 492.892C405.734 492.892 406.032 492.872 406.328 492.832C408.17 492.599 409.843 491.643 410.98 490.176C412.117 488.709 412.625 486.85 412.392 485.008L410.588 470.824Z" fill="#7C782F"/>
<path d="M400.248 444.956C402.089 444.721 403.762 443.766 404.9 442.299C406.038 440.832 406.547 438.974 406.316 437.132L404.52 422.944C404.404 422.032 404.11 421.151 403.654 420.353C403.198 419.554 402.59 418.854 401.863 418.29C401.136 417.727 400.306 417.312 399.419 417.07C398.532 416.828 397.606 416.762 396.694 416.878C395.782 416.994 394.901 417.288 394.103 417.744C393.304 418.199 392.603 418.808 392.04 419.535C391.477 420.261 391.062 421.092 390.82 421.979C390.577 422.866 390.512 423.792 390.628 424.704L392.424 438.888C392.64 440.577 393.463 442.13 394.74 443.256C396.017 444.383 397.661 445.005 399.364 445.008C399.659 445.009 399.954 444.991 400.248 444.956Z" fill="#7C782F"/>
<path d="M245.599 369.2C243.81 368.704 241.897 368.938 240.281 369.852C238.664 370.765 237.477 372.283 236.979 374.072L233.151 387.848C232.905 388.734 232.836 389.66 232.947 390.572C233.059 391.485 233.349 392.367 233.802 393.167C234.254 393.968 234.86 394.671 235.584 395.238C236.308 395.804 237.137 396.222 238.023 396.468C238.634 396.637 239.265 396.723 239.899 396.724C241.431 396.727 242.922 396.227 244.143 395.302C245.364 394.376 246.248 393.076 246.659 391.6L250.487 377.824C250.733 376.937 250.802 376.01 250.69 375.096C250.577 374.182 250.285 373.3 249.831 372.499C249.377 371.698 248.77 370.994 248.044 370.428C247.318 369.862 246.487 369.445 245.599 369.2Z" fill="#7C782F"/>
<path d="M219.788 462.208C218.902 461.962 217.976 461.892 217.064 462.004C216.151 462.116 215.269 462.406 214.469 462.858C213.668 463.311 212.965 463.916 212.398 464.641C211.832 465.365 211.414 466.194 211.168 467.08L207.34 480.856C206.844 482.645 207.078 484.558 207.992 486.175C208.905 487.791 210.423 488.978 212.212 489.476C212.823 489.645 213.454 489.731 214.088 489.732C215.618 489.731 217.105 489.229 218.323 488.303C219.541 487.377 220.422 486.078 220.832 484.604L224.66 470.828C224.906 469.942 224.975 469.016 224.864 468.104C224.752 467.191 224.462 466.309 224.01 465.509C223.557 464.708 222.951 464.005 222.227 463.438C221.503 462.872 220.674 462.454 219.788 462.208Z" fill="#7C782F"/>
<path d="M232.704 415.704C231.818 415.457 230.892 415.386 229.978 415.497C229.065 415.608 228.182 415.899 227.381 416.351C226.58 416.804 225.876 417.41 225.31 418.135C224.743 418.86 224.325 419.689 224.08 420.576L220.252 434.352C220.006 435.238 219.937 436.164 220.049 437.076C220.161 437.989 220.452 438.87 220.904 439.67C221.357 440.471 221.963 441.174 222.687 441.74C223.411 442.306 224.24 442.724 225.126 442.97C226.012 443.216 226.938 443.285 227.85 443.173C228.763 443.061 229.644 442.77 230.444 442.318C231.245 441.865 231.948 441.26 232.514 440.535C233.08 439.811 233.498 438.982 233.744 438.096L237.576 424.32C238.071 422.531 237.836 420.619 236.923 419.004C236.009 417.389 234.492 416.202 232.704 415.704Z" fill="#7C782F"/>
<path d="M293.472 368.996C291.63 368.767 289.773 369.277 288.307 370.414C286.841 371.552 285.885 373.224 285.648 375.064L283.852 389.248C283.62 391.089 284.128 392.948 285.265 394.415C286.402 395.882 288.075 396.838 289.916 397.072C290.211 397.108 290.507 397.127 290.804 397.128C292.507 397.126 294.15 396.503 295.427 395.377C296.704 394.25 297.526 392.697 297.74 391.008L299.54 376.82C299.771 374.978 299.262 373.12 298.124 371.653C296.986 370.186 295.313 369.231 293.472 368.996Z" fill="#7C782F"/>
<path d="M281.327 464.76C279.486 464.534 277.631 465.046 276.165 466.182C274.7 467.319 273.743 468.989 273.503 470.828L271.707 485.012C271.475 486.853 271.983 488.712 273.12 490.179C274.257 491.646 275.93 492.602 277.771 492.836C278.066 492.872 278.363 492.891 278.659 492.892C280.363 492.89 282.007 492.267 283.283 491.139C284.56 490.012 285.382 488.458 285.595 486.768L287.395 472.584C287.627 470.742 287.119 468.883 285.981 467.416C284.843 465.949 283.169 464.994 281.327 464.76Z" fill="#7C782F"/>
<path d="M287.407 416.88C286.494 416.758 285.565 416.818 284.676 417.058C283.786 417.297 282.953 417.711 282.224 418.275C281.495 418.839 280.886 419.543 280.431 420.344C279.977 421.146 279.686 422.029 279.575 422.944L277.775 437.128C277.542 438.97 278.05 440.829 279.187 442.296C280.324 443.763 281.998 444.719 283.839 444.952C284.135 444.99 284.433 445.009 284.731 445.008C286.433 445.006 288.076 444.384 289.353 443.258C290.63 442.133 291.452 440.58 291.667 438.892L293.467 424.704C293.699 422.863 293.192 421.005 292.056 419.539C290.919 418.072 289.248 417.116 287.407 416.88Z" fill="#7C782F"/>
</svg>
