<svg xmlns="http://www.w3.org/2000/svg" xmlns:xlink="http://www.w3.org/1999/xlink" viewBox="0 0 68 57" version="1.1" x="0px" y="0px" style="max-width:100%" height="100%">
	<title style="" fill="currentColor">
		conditioner, air, suction, system, heat, humidity
	</title>
	<desc style="" fill="currentColor">
		Created with Sketch.
	</desc>
	<g stroke="currentColor" stroke-width="1" fill="none" fill-rule="evenodd" style="">
		<g transform="translate(-657.000000, -63.000000)" fill="currentColor" fill-rule="nonzero" style="">
			<path d="M718.461649,97 L713.83829,86.2121614 C713.523132,85.4767937 712.800056,85 712,85 L668,85 C667.199944,85 666.476868,85.4767937 666.16171,86.2121614 L661.538351,97 L661,97 C658.790861,97 657,95.209139 657,93 L657,67 C657,64.790861 658.790861,63 661,63 L721,63 C723.209139,63 725,64.790861 725,67 L725,93 C725,95.209139 723.209139,97 721,97 L718.461649,97 Z M715,75 C716.104569,75 717,74.1045695 717,73 C717,71.8954305 716.104569,71 715,71 C713.895431,71 713,71.8954305 713,73 C713,74.1045695 713.895431,75 715,75 Z M714.109779,97 L665.890221,97 L669.318792,89 L710.681208,89 L714.109779,97 Z M688,103 C688,101.895431 688.895431,101 690,101 C691.104569,101 692,101.895431 692,103 L692,113 C692,114.104569 691.104569,115 690,115 C688.895431,115 688,114.104569 688,113 L688,103 Z M668,103 C668,101.895431 668.895431,101 670,101 C671.104569,101 672,101.895431 672,103 L672,113 C672,114.104569 671.104569,115 670,115 C668.895431,115 668,114.104569 668,113 L668,103 Z M708,103 C708,101.895431 708.895431,101 710,101 C711.104569,101 712,101.895431 712,103 L712,113 C712,114.104569 711.104569,115 710,115 C708.895431,115 708,114.104569 708,113 L708,103 Z M698,108 C698,106.895431 698.895431,106 700,106 C701.104569,106 702,106.895431 702,108 L702,118 C702,119.104569 701.104569,120 700,120 C698.895431,120 698,119.104569 698,118 L698,108 Z M678,108 C678,106.895431 678.895431,106 680,106 C681.104569,106 682,106.895431 682,108 L682,118 C682,119.104569 681.104569,120 680,120 C678.895431,120 678,119.104569 678,118 L678,108 Z" style="" fill="currentColor">
			</path>
		</g>
	</g>
</svg>
