<svg xmlns="http://www.w3.org/2000/svg" data-name="towel" viewBox="0 0 64 64" x="0px" y="0px" style="max-width:100%" height="100%">
	<title style="" fill="currentColor">
		blanket
	</title>
	<path d="M14,16a1,1,0,0,0,1,1H60v1a6.9961,6.9961,0,0,1-3.413,6A6.9961,6.9961,0,0,1,60,30v1H15a1,1,0,0,0,0,2H60v1a6.9961,6.9961,0,0,1-3.413,6A6.9961,6.9961,0,0,1,60,46v1H15a1,1,0,0,0,0,2H60v1a7.0079,7.0079,0,0,1-7,7H13A8.9939,8.9939,0,0,1,8.8959,40a8.9841,8.9841,0,0,1,0-16A8.9939,8.9939,0,0,1,13,7H53a7.0079,7.0079,0,0,1,7,7v1H15A1,1,0,0,0,14,16Z" style="" fill="currentColor">
	</path>
</svg>
