<svg xmlns="http://www.w3.org/2000/svg" xmlns:xlink="http://www.w3.org/1999/xlink" version="1.1" x="0px" y="0px" viewBox="0 0 48 48" enable-background="new 0 0 48 48" xml:space="preserve" style="max-width:100%" height="100%">
	<g style="" fill="#ea9449">
		<path d="M40.6,17.9V4c0-1.9-1.6-3.5-3.5-3.5H10.9C8.9,0.5,7.4,2.1,7.4,4v13.9H40.6z M29.8,11.2c0-1.1,0.9-2,2-2c1.1,0,2,0.9,2,2v1.7c0,1.1-0.9,2-2,2c-1.1,0-2-0.9-2-2V11.2z" style="" fill="#ea9449">
		</path>
		<path d="M7.4,21.8v17.9c0,1.9,1.6,3.5,3.5,3.5h1.9v2.3c0,1.1,0.9,2,2,2s2-0.9,2-2v-2.3h14.6v2.3c0,1.1,0.9,2,2,2s2-0.9,2-2v-2.3h1.9c1.9,0,3.5-1.6,3.5-3.5V21.8H7.4z M33.7,28.4c0,1.1-0.9,2-2,2c-1.1,0-2-0.9-2-2v-1.7c0-1.1,0.9-2,2-2c1.1,0,2,0.9,2,2V28.4z" style="" fill="#ea9449">
		</path>
	</g>
</svg>
