<svg width="512" height="512" viewBox="0 0 512 512" fill="none" xmlns="http://www.w3.org/2000/svg">
<path d="M331.332 297.972H300.732C299.161 297.971 297.654 297.347 296.542 296.236C295.43 295.126 294.803 293.62 294.8 292.048V261.448C294.794 256.165 292.692 251.1 288.956 247.364C285.22 243.628 280.155 241.526 274.872 241.52H237.124C231.842 241.527 226.777 243.629 223.043 247.365C219.308 251.101 217.206 256.165 217.2 261.448V292.048C217.197 293.619 216.571 295.124 215.46 296.235C214.349 297.345 212.843 297.97 211.272 297.972H180.672C175.388 297.979 170.323 300.082 166.588 303.818C162.852 307.555 160.75 312.62 160.744 317.904V355.656C160.746 360.941 162.845 366.01 166.581 369.749C170.316 373.488 175.383 375.593 180.668 375.6H211.268C212.837 375.602 214.342 376.225 215.453 377.333C216.565 378.44 217.193 379.943 217.2 381.512V412.108C217.206 417.392 219.308 422.457 223.044 426.194C226.779 429.93 231.844 432.033 237.128 432.04H274.88C280.164 432.033 285.229 429.93 288.965 426.194C292.7 422.457 294.802 417.392 294.808 412.108V381.512C294.816 379.944 295.442 378.443 296.552 377.335C297.662 376.228 299.164 375.604 300.732 375.6H331.332C336.615 375.594 341.68 373.492 345.416 369.756C349.152 366.02 351.254 360.955 351.26 355.672V317.904C351.254 312.62 349.152 307.555 345.417 303.818C341.681 300.082 336.616 297.979 331.332 297.972ZM337.26 355.656C337.261 356.436 337.109 357.208 336.811 357.928C336.514 358.649 336.078 359.304 335.527 359.856C334.977 360.408 334.323 360.846 333.603 361.145C332.883 361.444 332.112 361.599 331.332 361.6H300.732C295.451 361.605 290.387 363.704 286.651 367.437C282.915 371.169 280.811 376.231 280.8 381.512V412.108C280.8 413.681 280.176 415.189 279.064 416.301C277.953 417.413 276.445 418.039 274.872 418.04H237.124C235.552 418.039 234.044 417.413 232.932 416.301C231.821 415.189 231.196 413.681 231.196 412.108V381.512C231.186 376.231 229.082 371.171 225.347 367.438C221.611 363.706 216.549 361.606 211.268 361.6H180.668C179.097 361.598 177.59 360.973 176.479 359.861C175.367 358.75 174.742 357.244 174.74 355.672V317.904C174.741 316.332 175.366 314.824 176.477 313.712C177.589 312.6 179.096 311.974 180.668 311.972H211.268C216.552 311.968 221.618 309.868 225.355 306.132C229.092 302.397 231.194 297.332 231.2 292.048V261.448C231.201 259.876 231.826 258.369 232.938 257.257C234.049 256.146 235.556 255.521 237.128 255.52H274.88C276.451 255.523 277.956 256.149 279.066 257.26C280.175 258.371 280.799 259.877 280.8 261.448V292.048C280.806 297.331 282.908 302.396 286.644 306.131C290.38 309.866 295.445 311.967 300.728 311.972H331.328C332.9 311.974 334.408 312.6 335.519 313.712C336.63 314.824 337.255 316.332 337.256 317.904L337.26 355.656Z" fill="#7C782F"/>
<path d="M451.668 115.052H357.16V59.1C357.151 50.8455 353.867 42.9319 348.03 37.0954C342.193 31.259 334.279 27.9765 326.024 27.968H185.976C177.722 27.9765 169.808 31.259 163.971 37.0954C158.134 42.9319 154.85 50.8455 154.84 59.1V115.052H60.3324C49.8667 115.065 39.8332 119.228 32.4327 126.628C25.0323 134.029 20.8691 144.062 20.8564 154.528V444.56C20.8691 455.025 25.0324 465.059 32.433 472.458C39.8335 479.858 49.867 484.02 60.3324 484.032H451.668C462.134 484.02 472.167 479.858 479.568 472.458C486.968 465.059 491.132 455.025 491.144 444.56V154.528C491.132 144.062 486.969 134.029 479.568 126.628C472.168 119.228 462.134 115.065 451.668 115.052ZM185.976 41.968H326.024C330.567 41.9733 334.922 43.7798 338.134 46.9914C341.347 50.203 343.154 54.5576 343.16 59.1V70.04H168.84V59.1C168.847 54.5576 170.654 50.203 173.867 46.9914C177.079 43.7798 181.434 41.9733 185.976 41.968ZM168.84 84.04H343.16V115.052H168.84V84.04ZM60.3324 129.052H451.668C458.423 129.059 464.898 131.746 469.675 136.522C474.451 141.298 477.137 147.774 477.144 154.528V184.344H34.8564V154.528C34.8639 147.774 37.5503 141.298 42.3264 136.522C47.1024 131.746 53.5781 129.059 60.3324 129.052ZM370.828 198.344H401.788V226.04C401.788 230.146 400.158 234.083 397.254 236.986C394.351 239.889 390.414 241.52 386.308 241.52C382.203 241.52 378.266 239.889 375.362 236.986C372.459 234.083 370.828 230.146 370.828 226.04V198.344ZM110.212 198.344H141.172V226.04C141.172 230.146 139.542 234.083 136.638 236.986C133.735 239.889 129.798 241.52 125.692 241.52C121.587 241.52 117.649 239.889 114.746 236.986C111.843 234.083 110.212 230.146 110.212 226.04V198.344ZM451.668 470.032H60.3324C53.5788 470.025 47.1037 467.339 42.3278 462.563C37.5518 457.788 34.8649 451.314 34.8564 444.56V198.344H96.2124V226.04C96.2124 233.859 99.3184 241.357 104.847 246.885C110.376 252.414 117.874 255.52 125.692 255.52C133.511 255.52 141.009 252.414 146.538 246.885C152.067 241.357 155.172 233.859 155.172 226.04V198.344H356.828V226.04C356.828 233.859 359.934 241.357 365.463 246.885C370.992 252.414 378.49 255.52 386.308 255.52C394.127 255.52 401.625 252.414 407.154 246.885C412.683 241.357 415.788 233.859 415.788 226.04V198.344H477.144V444.56C477.136 451.314 474.449 457.788 469.673 462.563C464.897 467.339 458.422 470.025 451.668 470.032Z" fill="#7C782F"/>
</svg>
