<svg width="365" height="365" viewBox="0 0 365 365" fill="none" xmlns="http://www.w3.org/2000/svg">
<g clip-path="url(#clip0_5_35)">
<path d="M349.927 138.375V138.535C349.927 138.535 349.927 138.055 349.447 137.895L330.967 123.095V67.495C330.967 59.719 324.663 53.415 316.887 53.415H244.087L185.607 6.53495C183.411 4.76895 180.283 4.76895 178.087 6.53495L119.607 53.415H46.8071C39.0311 53.415 32.7271 59.719 32.7271 67.495V123.015L14.2471 137.815C14.0411 138.04 13.8541 138.28 13.6871 138.535C4.63311 149.634 -0.211888 163.573 0.0071119 177.895V302.855C0.0071119 329.895 14.7271 358.855 56.0071 358.855H308.007C335.047 358.855 364.007 344.135 364.007 302.855V177.895C364.672 163.386 359.616 149.195 349.927 138.375ZM331.047 138.295L335.687 142.055L331.047 145.335V138.295ZM181.927 19.0149L224.887 53.4949H138.967L181.927 19.0149ZM44.8871 67.495C44.8871 66.39 45.7821 65.495 46.8871 65.495H316.967C318.072 65.495 318.967 66.39 318.967 67.495V153.895L181.927 249.415L44.8871 153.895V67.495ZM32.8071 138.455V145.495L28.1671 142.055L32.8071 138.455ZM11.9271 302.695V177.815C11.8551 168.286 14.4301 158.925 19.3671 150.775L139.367 234.535L17.2871 326.055C13.7421 318.779 11.9081 310.788 11.9271 302.695ZM308.007 346.775L55.8471 346.695C44.3361 347.402 33.0191 343.486 24.4071 335.815L149.927 241.815L178.487 262.055H178.967H179.527C180.28 262.406 181.097 262.596 181.927 262.615C182.757 262.596 183.574 262.406 184.327 262.055H184.887H185.367L213.367 242.535L338.887 336.295C330.132 343.285 319.208 346.992 308.007 346.775ZM351.847 177.895V302.775C352.1 311.107 350.227 319.366 346.407 326.775L223.767 234.935L344.487 150.775C349.661 158.847 352.23 168.314 351.847 177.895Z" fill="#7C782F"/>
<path d="M215.767 92.295H83.7671C80.4311 92.295 77.7271 94.999 77.7271 98.335C77.7271 101.671 80.4311 104.375 83.7671 104.375H215.767C219.103 104.375 221.807 101.671 221.807 98.335C221.807 94.999 219.103 92.295 215.767 92.295Z" fill="#7C782F"/>
<path d="M280.087 136.455H83.7671C80.4311 136.455 77.7271 139.159 77.7271 142.495C77.7271 145.831 80.4311 148.535 83.7671 148.535H280.087C283.423 148.535 286.127 145.831 286.127 142.495C286.127 139.159 283.423 136.455 280.087 136.455Z" fill="#7C782F"/>
</g>
<defs>
<clipPath id="clip0_5_35">
<rect width="364.065" height="364.065" fill="white"/>
</clipPath>
</defs>
</svg>
