<svg width="512" height="512" viewBox="0 0 512 512" fill="none" xmlns="http://www.w3.org/2000/svg">
<path d="M409.2 20.924H102.8C93.608 20.9346 84.7962 24.592 78.2987 31.0933C71.8012 37.5946 68.1488 46.4085 68.1436 55.6V412.272C68.1581 419.973 70.7347 427.451 75.4675 433.526C80.2002 439.602 86.8199 443.93 94.2836 445.828V470.948C94.2888 476.289 96.4127 481.41 100.189 485.188C103.966 488.965 109.086 491.09 114.428 491.096H156.988C158.545 491.1 160.06 490.585 161.291 489.631C162.523 488.678 163.401 487.341 163.788 485.832L167.028 473.164H345.028L348.268 485.832C348.653 487.338 349.528 488.672 350.756 489.625C351.984 490.578 353.493 491.096 355.048 491.096H397.608C402.949 491.09 408.069 488.965 411.846 485.188C415.622 481.41 417.746 476.289 417.752 470.948V445.828C425.215 443.93 431.835 439.602 436.568 433.526C441.3 427.451 443.877 419.973 443.892 412.272V55.6C443.886 46.4022 440.229 37.5829 433.724 31.0806C427.218 24.5783 418.397 20.9251 409.2 20.924ZM429.856 202.34H400.304C400.133 202.34 399.97 202.273 399.85 202.153C399.729 202.033 399.661 201.87 399.66 201.7V174.556C399.66 174.385 399.727 174.221 399.848 174.101C399.969 173.98 400.133 173.912 400.304 173.912H429.856V202.34ZM102.8 34.924H409.2C414.676 34.9293 419.927 37.1073 423.8 40.9799C427.672 44.8525 429.85 50.1033 429.856 55.58V105.2H82.1436V55.6C82.1436 50.1199 84.3192 44.8639 88.1923 40.9869C92.0655 37.11 97.3194 34.9293 102.8 34.924ZM403.716 470.924C403.715 472.554 403.067 474.116 401.915 475.269C400.763 476.421 399.201 477.07 397.572 477.072H360.448L357.2 464.4C356.813 462.891 355.935 461.554 354.703 460.601C353.472 459.647 351.957 459.132 350.4 459.136H161.572C160.014 459.132 158.5 459.647 157.268 460.601C156.036 461.554 155.158 462.891 154.772 464.4L151.532 477.068H114.428C112.798 477.066 111.236 476.417 110.084 475.265C108.932 474.112 108.285 472.55 108.284 470.92V446.92H403.716V470.924ZM409.2 432.924H102.8C97.3229 432.919 92.072 430.741 88.1994 426.868C84.3268 422.996 82.1488 417.745 82.1436 412.268V119.2H429.856V159.912H400.304C396.421 159.916 392.699 161.46 389.953 164.206C387.208 166.951 385.664 170.673 385.66 174.556V201.7C385.665 205.582 387.21 209.303 389.955 212.048C392.7 214.792 396.422 216.336 400.304 216.34H429.856V330.34H400.304C396.421 330.344 392.699 331.888 389.953 334.634C387.208 337.379 385.664 341.101 385.66 344.984V372.128C385.665 376.01 387.21 379.731 389.955 382.476C392.7 385.22 396.422 386.764 400.304 386.768H429.856V412.252C429.85 417.729 427.672 422.98 423.8 426.852C419.927 430.725 414.676 432.903 409.2 432.908V432.924ZM429.856 372.784H400.304C400.133 372.784 399.97 372.717 399.85 372.597C399.729 372.477 399.661 372.314 399.66 372.144V344.984C399.66 344.813 399.727 344.649 399.848 344.529C399.969 344.408 400.133 344.34 400.304 344.34H429.856V372.784Z" fill="#7C782F"/>
<path d="M256 150C231.608 150 207.765 157.233 187.484 170.784C167.203 184.335 151.396 203.595 142.061 226.13C132.726 248.664 130.283 273.461 135.041 297.384C139.798 321.307 151.543 343.282 168.79 360.53C186.036 377.778 208.01 389.525 231.932 394.285C255.855 399.045 280.652 396.604 303.187 387.272C325.723 377.939 344.985 362.134 358.538 341.854C372.09 321.575 379.326 297.731 379.328 273.34C379.294 240.641 366.29 209.29 343.169 186.167C320.049 163.044 288.699 150.037 256 150ZM256 382.656C234.376 382.656 213.238 376.244 195.259 364.23C177.28 352.216 163.267 335.141 154.993 315.163C146.718 295.185 144.554 273.203 148.774 251.995C152.993 230.787 163.407 211.307 178.698 196.017C193.989 180.728 213.47 170.316 234.678 166.099C255.887 161.882 277.869 164.049 297.846 172.326C317.823 180.602 334.897 194.617 346.909 212.597C358.92 230.578 365.33 251.716 365.328 273.34C365.295 302.326 353.766 330.114 333.27 350.61C312.774 371.106 284.985 382.635 256 382.668V382.656Z" fill="#7C782F"/>
<path d="M256 188.2C239.159 188.199 222.697 193.192 208.695 202.548C194.692 211.903 183.778 225.201 177.334 240.759C170.889 256.317 169.202 273.437 172.487 289.954C175.773 306.471 183.882 321.642 195.79 333.55C207.698 345.458 222.869 353.567 239.386 356.852C255.903 360.137 273.022 358.451 288.581 352.006C304.139 345.561 317.436 334.647 326.792 320.645C336.147 306.643 341.14 290.18 341.14 273.34C341.114 250.767 332.136 229.126 316.175 213.165C300.213 197.204 278.572 188.225 256 188.2ZM256 344.484C241.928 344.485 228.173 340.313 216.473 332.496C204.773 324.679 195.654 313.568 190.268 300.568C184.883 287.569 183.473 273.264 186.218 259.463C188.963 245.662 195.738 232.985 205.688 223.035C215.637 213.085 228.314 206.309 242.115 203.563C255.915 200.818 270.22 202.227 283.22 207.611C296.22 212.996 307.332 222.114 315.149 233.814C322.967 245.514 327.14 259.269 327.14 273.34C327.118 292.201 319.617 310.284 306.28 323.622C292.943 336.959 274.861 344.462 256 344.484Z" fill="#7C782F"/>
<path d="M164.439 157.012C164.439 152.113 162.987 147.325 160.265 143.252C157.544 139.179 153.675 136.004 149.15 134.129C144.624 132.255 139.644 131.764 134.839 132.72C130.035 133.676 125.622 136.035 122.158 139.498C118.694 142.962 116.335 147.376 115.379 152.18C114.424 156.985 114.914 161.965 116.789 166.49C118.663 171.016 121.838 174.884 125.911 177.606C129.984 180.327 134.773 181.78 139.671 181.78C146.238 181.772 152.533 179.159 157.176 174.516C161.819 169.873 164.431 163.578 164.439 157.012ZM128.903 157.012C128.903 154.882 129.535 152.8 130.718 151.03C131.901 149.259 133.583 147.879 135.551 147.064C137.518 146.249 139.683 146.035 141.772 146.451C143.861 146.866 145.78 147.892 147.285 149.398C148.791 150.904 149.817 152.823 150.232 154.911C150.648 157 150.435 159.165 149.62 161.133C148.805 163.1 147.424 164.782 145.654 165.965C143.883 167.149 141.801 167.78 139.671 167.78C136.818 167.772 134.084 166.634 132.067 164.617C130.049 162.599 128.912 159.865 128.903 157.012Z" fill="#7C782F"/>
<path d="M127.916 77.068H138.876C140.733 77.068 142.513 76.3305 143.826 75.0178C145.139 73.705 145.876 71.9245 145.876 70.068C145.876 68.2115 145.139 66.431 143.826 65.1183C142.513 63.8055 140.733 63.068 138.876 63.068H127.916C126.06 63.068 124.279 63.8055 122.966 65.1183C121.654 66.431 120.916 68.2115 120.916 70.068C120.916 71.9245 121.654 73.705 122.966 75.0178C124.279 76.3305 126.06 77.068 127.916 77.068Z" fill="#7C782F"/>
<path d="M171.6 77.068H182.56C184.416 77.068 186.197 76.3305 187.509 75.0178C188.822 73.705 189.56 71.9245 189.56 70.068C189.56 68.2115 188.822 66.431 187.509 65.1183C186.197 63.8055 184.416 63.068 182.56 63.068H171.6C169.743 63.068 167.963 63.8055 166.65 65.1183C165.337 66.431 164.6 68.2115 164.6 70.068C164.6 71.9245 165.337 73.705 166.65 75.0178C167.963 76.3305 169.743 77.068 171.6 77.068Z" fill="#7C782F"/>
<path d="M215.248 77.068H226.212C228.069 77.068 229.849 76.3305 231.162 75.0178C232.475 73.705 233.212 71.9245 233.212 70.068C233.212 68.2115 232.475 66.431 231.162 65.1183C229.849 63.8055 228.069 63.068 226.212 63.068H215.248C213.392 63.068 211.611 63.8055 210.298 65.1183C208.986 66.431 208.248 68.2115 208.248 70.068C208.248 71.9245 208.986 73.705 210.298 75.0178C211.611 76.3305 213.392 77.068 215.248 77.068Z" fill="#7C782F"/>
<path d="M336.352 77.068H384.084C385.94 77.068 387.721 76.3305 389.033 75.0178C390.346 73.705 391.084 71.9245 391.084 70.068C391.084 68.2115 390.346 66.431 389.033 65.1183C387.721 63.8055 385.94 63.068 384.084 63.068H336.352C334.495 63.068 332.715 63.8055 331.402 65.1183C330.089 66.431 329.352 68.2115 329.352 70.068C329.352 71.9245 330.089 73.705 331.402 75.0178C332.715 76.3305 334.495 77.068 336.352 77.068Z" fill="#7C782F"/>
</svg>
