<svg xmlns:x="http://ns.adobe.com/Extensibility/1.0/" xmlns:i="http://ns.adobe.com/AdobeIllustrator/10.0/" xmlns:graph="http://ns.adobe.com/Graphs/1.0/" xmlns="http://www.w3.org/2000/svg" xmlns:xlink="http://www.w3.org/1999/xlink" version="1.1" x="0px" y="0px" viewBox="0 0 100 100" enable-background="new 0 0 100 100" xml:space="preserve" style="max-width:100%" height="100%">
<metadata style="" fill="currentColor"><sfw xmlns="http://ns.adobe.com/SaveForWeb/1.0/" style="" fill="currentColor">
<slices style="" fill="currentColor"></slices>
<slicesourcebounds width="1447.2" height="1444.2" x="1" y="-1446.1" bottomleftorigin="true" style="" fill="currentColor"></slicesourcebounds></sfw></metadata>
<path d="M86.3,84c3.8-3.9,3.8-9.1,0-12.9L75.9,60.7c-1.8-1.9-4-2.9-6.4-2.9c-2.3,0-4.5,1-6.4,2.9l-6,6c-0.5-0.3-1-0.5-1.5-0.8  c-0.7-0.3-1.3-0.7-1.9-1c-5.6-3.5-10.7-8.2-15.5-14.1c-2.4-3-4-5.5-5.1-8.1c1.5-1.4,3-2.9,4.4-4.3c0.5-0.5,1.1-1.1,1.6-1.6  c1.9-1.9,3-4.2,3-6.5s-1-4.5-3-6.5L34,18.6c-0.6-0.6-1.2-1.2-1.7-1.8c-1.1-1.2-2.3-2.4-3.5-3.5c-1.8-1.8-4-2.8-6.3-2.8  c-2.3,0-4.5,1-6.4,2.8l-6.5,6.5c-2.4,2.4-3.8,5.3-4.1,8.7c-0.4,5.5,1.2,10.6,2.4,14c3,8.2,7.6,15.9,14.4,24.1  c8.3,9.9,18.2,17.6,29.5,23.1c4.3,2.1,10.1,4.5,16.6,4.9c0.4,0,0.8,0,1.2,0c4.3,0,8-1.6,10.8-4.7c0,0,0.1-0.1,0.1-0.1  c1-1.2,2.1-2.3,3.3-3.4C84.7,85.7,85.5,84.9,86.3,84z M80.4,82.9c-1.2,1.2-2.5,2.4-3.6,3.8c-1.9,2.1-4.2,3-7.1,3c-0.3,0-0.6,0-0.9,0  C63.2,89.2,58,87.1,54,85.2C43.3,80,34,72.7,26.2,63.4c-6.4-7.7-10.7-14.9-13.6-22.6c-1.8-4.7-2.4-8.4-2.1-11.8  c0.2-2.2,1.1-4,2.6-5.6l6.4-6.4c0.9-0.9,1.9-1.4,2.9-1.4c1.2,0,2.2,0.7,2.9,1.4c1.2,1.1,2.2,2.2,3.4,3.4c0.6,0.6,1.2,1.2,1.8,1.8  l5.1,5.1c1,1,1.5,2,1.5,3s-0.5,2-1.5,3c-0.5,0.5-1.1,1.1-1.6,1.6c-1.6,1.6-3.1,3.1-4.7,4.6c0,0-0.1,0.1-0.1,0.1  c-1.6,1.6-1.3,3.2-1,4.2c0,0.1,0,0.1,0.1,0.2c1.3,3.2,3.2,6.3,6.1,9.9c5.2,6.4,10.7,11.4,16.7,15.2c0.8,0.5,1.6,0.9,2.3,1.3  c0.7,0.3,1.3,0.7,1.9,1c0.1,0,0.1,0.1,0.2,0.1c0.6,0.3,1.2,0.5,1.8,0.5c1.5,0,2.5-1,2.8-1.3l6.5-6.5c0.6-0.6,1.7-1.4,2.9-1.4  c1.2,0,2.1,0.8,2.8,1.4l10.4,10.4c2.4,2.4,1.3,4.6-0.1,6C82,81.4,81.2,82.1,80.4,82.9z M51.6,23.6c0.2-1.4,1.5-2.3,2.9-2  c6,1,11.4,3.8,15.7,8.2s7.1,9.8,8.2,15.7c0.2,1.4-0.7,2.7-2,2.9c-0.1,0-0.3,0-0.4,0c-1.2,0-2.3-0.9-2.5-2.1c-0.8-4.9-3.2-9.5-6.8-13  c-3.6-3.6-8.1-5.9-13-6.8C52.2,26.3,51.3,25,51.6,23.6z M89.6,45.6c-1.5-8.8-5.7-16.8-12-23.2c-6.4-6.4-14.4-10.5-23.2-12  c-1.4-0.2-2.3-1.5-2-2.9s1.5-2.3,2.9-2C65,7.1,74,11.7,81.1,18.8c7.1,7.1,11.8,16.1,13.4,25.9c0.2,1.4-0.7,2.7-2,2.9  c-0.1,0-0.3,0-0.4,0C90.9,47.7,89.8,46.8,89.6,45.6z" style="" fill="currentColor" xmlns="http://www.w3.org/2000/svg"></path>
</svg>