<svg xmlns="http://www.w3.org/2000/svg" xmlns:xlink="http://www.w3.org/1999/xlink"
    viewBox="0 0 100 100" version="1.1" x="0px" y="0px" style="max-width:100%" height="100%">
    <title style="" fill="currentColor">Tent</title>
    <desc style="" fill="currentColor">Created with Sketch.</desc>
    <g stroke="currentColor" stroke-width="1" fill="none" fill-rule="evenodd" style="">
        <g fill="currentColor" style="">
            <g transform="translate(0.000000, 8.000000)" style="" fill="currentColor">
                <path
                    d="M86.0211688,79.722377 L62.7172727,79.722377 L62.7172727,60.6014375 C62.7172727,53.9166694 57.7835065,48.3816606 51.3835065,47.4300458 L51.3835065,14.547192 L86.0211688,67.3292237 L86.0211688,79.722377 Z M40.051039,79.722377 L40.051039,60.6014375 C40.051039,55.4079671 44.2614286,51.180451 49.4354545,51.180451 C54.6094805,51.180451 58.8211688,55.4079671 58.8211688,60.6014375 L58.8211688,79.722377 L40.051039,79.722377 Z M12.8497403,67.3292237 L47.4874026,14.547192 L47.4874026,47.4300458 C41.0874026,48.3816606 36.1549351,53.9166694 36.1549351,60.6014375 L36.1549351,79.722377 L12.8497403,79.722377 L12.8497403,67.3292237 Z M96.9250649,69.2402748 C95.8484416,69.2402748 94.977013,70.1162819 94.977013,71.1956477 L94.977013,73.5329701 L51.7718182,8.02406812 L55.0627273,3.03526013 C55.6562338,2.13448503 55.4107792,0.920850264 54.5133766,0.325113329 C53.6172727,-0.270623605 52.4094805,-0.0242466236 51.8133766,0.876528479 L49.4354545,4.48223605 L47.0575325,0.876528479 C46.4627273,-0.0242466236 45.2536364,-0.26671286 44.3575325,0.325113329 C43.4614286,0.920850264 43.2146753,2.13448503 43.8081818,3.03526013 L47.0990909,8.02406812 L3.89649351,73.5316665 L3.89649351,71.1956477 C3.89649351,70.1162819 3.02376623,69.2402748 1.94844156,69.2402748 C0.873116883,69.2402748 0.00038961039,70.1162819 0.00038961039,71.1956477 L0.00038961039,81.4066048 C0.00038961039,82.4859706 0.873116883,83.3619777 1.94844156,83.3619777 C3.02376623,83.3619777 3.89649351,82.4859706 3.89649351,81.4066048 L3.89649351,80.5084369 C4.00948052,80.4028467 4.11467532,80.2855244 4.20428571,80.1499518 L8.95363636,72.9489654 L8.95363636,81.6777499 C8.95363636,82.7571157 9.82636364,83.6331227 10.9016883,83.6331227 L38.102987,83.6331227 L60.7692208,83.6331227 L87.9692208,83.6331227 C89.0445455,83.6331227 89.9172727,82.7571157 89.9172727,81.6777499 L89.9172727,72.9489654 L94.6666234,80.1499518 C94.7562338,80.2855244 94.8614286,80.4041503 94.977013,80.5097405 L94.977013,81.4066048 C94.977013,82.4859706 95.8484416,83.3619777 96.9250649,83.3619777 C98.0003896,83.3619777 98.8731169,82.4859706 98.8731169,81.4066048 L98.8731169,71.1956477 C98.8731169,70.1162819 98.0003896,69.2402748 96.9250649,69.2402748 L96.9250649,69.2402748 Z"
                    style="" fill="currentColor"></path>
            </g>
        </g>
    </g>
</svg>